<?xml version="1.0" encoding="UTF-8"?>
<svg width="80px" height="80px" viewBox="0 0 80 80" version="1.1" xmlns="http://www.w3.org/2000/svg" xmlns:xlink="http://www.w3.org/1999/xlink">
    <title>happy-6</title>
    <g id="页面-1" stroke="none" stroke-width="1" fill="none" fill-rule="evenodd">
        <g id="happy-6" fill-rule="nonzero">
            <path d="M57.1295238,74.8133334 L46.6228571,64.3066666 C48.2819302,63.6241891 49.853669,62.7462407 51.3047619,61.6914286 L57.0323809,55.9638095 C57.8381952,54.8885031 58.515195,53.7224525 59.0495238,52.4895238 L69.2533334,62.6933334 C70.0057143,63.4457143 70.5638095,64.32 70.9333334,65.2552381 C76.5676191,58.3619048 80,49.5980952 80,40 C80,17.9085714 62.0914286,0 40,0 C17.9085714,0 0,17.9085714 0,40 C0,62.0914286 17.9085714,80 40,80 C46.5314286,80 52.6742857,78.4 58.1180952,75.6190477 C57.7661795,75.3791833 57.4354477,75.1096274 57.1295238,74.8133334 L57.1295238,74.8133334 Z" id="路径" fill="#FBD971"></path>
            <path d="M19.0476191,25.7142857 C19.0476191,29.396184 22.0323874,32.3809523 25.7142857,32.3809523 C29.396184,32.3809523 32.3809523,29.396184 32.3809523,25.7142857 C32.3809523,22.0323874 29.396184,19.0476191 25.7142857,19.0476191 C22.0323874,19.0476191 19.0476191,22.0323874 19.0476191,25.7142857 Z" id="路径" fill="#AF8066"></path>
            <path d="M49.5238095,25.7142857 C49.5238095,29.396184 52.5085779,32.3809524 56.1904762,32.3809524 C59.8723746,32.3809524 62.8571429,29.396184 62.8571429,25.7142857 C62.8571429,23.3325151 61.5864835,21.1316682 59.5238095,19.9407828 C57.4611357,18.7498975 54.9198167,18.7498975 52.8571428,19.9407828 C50.7944689,21.1316682 49.5238095,23.3325151 49.5238095,25.7142857 L49.5238095,25.7142857 Z" id="路径" fill="#AF8066"></path>
            <path d="M54.0342857,59.4057143 C51.9166043,61.5187914 49.3963608,63.1853519 46.6228571,64.3066666 L57.1295238,74.8133334 C60.1097409,77.7774229 64.9245448,77.7774229 67.9047619,74.8133334 L69.2514286,73.4666666 C72.2155182,70.4864496 72.2155182,65.6716456 69.2514286,62.6914286 L59.0476191,52.4876191 C57.9161905,55.1714286 56.0628572,57.3752381 54.0342857,59.4057143 Z" id="路径" fill="#FB7B76"></path>
            <path d="M58.3904762,60.7276191 C57.1161905,59.7657143 55.9580952,58.9504762 54.9219048,58.4685714 C54.6266666,58.7828571 54.3371429,59.1009523 54.0323809,59.4057143 C53.3257143,60.1123809 52.5542857,60.7504762 51.7580952,61.3561905 C52.1790476,61.7676191 52.7447619,61.9485714 53.2857143,61.8933334 C54.6895238,62.5428572 58.9866666,65.8990477 61.1695238,68.08 C61.5259717,68.4384938 62.0106483,68.6400663 62.5161905,68.6400663 C63.0217326,68.6400663 63.5064092,68.4384938 63.8628571,68.08 C64.2204121,67.7230525 64.4213355,67.2385631 64.4213355,66.7333333 C64.4213355,66.2281036 64.2204121,65.7436141 63.8628571,65.3866666 C62.5942857,64.1161905 60.3428571,62.2 58.3904762,60.7276191 L58.3904762,60.7276191 Z" id="路径" fill="#E64C3C"></path>
            <path d="M40,66.6666666 C27.3961905,66.6666666 17.1428571,56.4133333 17.1428571,43.8095238 C17.1428571,42.7575529 17.9956481,41.9047619 19.047619,41.9047619 C20.09959,41.9047619 20.9523809,42.7575529 20.9523809,43.8095238 C20.9523809,54.3123809 29.4971428,62.8571429 40,62.8571429 C50.5028572,62.8571429 59.0476191,54.312381 59.0476191,43.8095238 C59.0476191,42.7575529 59.90041,41.9047619 60.952381,41.9047619 C62.0043519,41.9047619 62.8571429,42.7575529 62.8571429,43.8095238 C62.8571429,56.4133334 52.6038095,66.6666666 40,66.6666666 Z" id="路径" fill="#F0C419"></path>
        </g>
    </g>
</svg>