<?xml version="1.0" encoding="UTF-8"?>
<svg width="80px" height="80px" viewBox="0 0 80 80" version="1.1" xmlns="http://www.w3.org/2000/svg" xmlns:xlink="http://www.w3.org/1999/xlink">
    <title>ninja</title>
    <g id="页面-1" stroke="none" stroke-width="1" fill="none" fill-rule="evenodd">
        <g id="ninja" fill-rule="nonzero">
            <path d="M19.0476191,11.4285714 L60.9523809,11.4285714 C64.695238,11.4285714 68.1561905,12.6590476 70.9847619,14.7142857 C63.6495238,5.73714289 52.4971429,0 40,0 C27.5028571,0 16.3504762,5.73714289 9.01523812,14.7142857 C11.9265006,12.583234 15.4397368,11.4326108 19.0476191,11.4285714 Z M78.0514286,27.6914286 C78.064762,27.984762 78.0952381,28.2742857 78.0952381,28.5714286 C78.0952381,38 70.3809524,45.7142857 60.9523809,45.7142857 L19.0476191,45.7142857 C9.61904766,45.7142857 1.90476195,38 1.90476188,28.5714286 C1.90476188,28.2742857 1.93523805,27.984762 1.94857141,27.6914286 C0.659383441,31.6671432 0.00186670553,35.8204894 0,40 C0,62.0914286 17.9085714,80 40,80 C62.0914286,80 80,62.0914286 80,40 C79.9981333,35.8204894 79.3406166,31.6671432 78.0514286,27.6914286 Z" id="形状" fill="#556080"></path>
            <path d="M60.9523809,45.7142857 L19.0476191,45.7142857 C9.61904766,45.7142857 1.90476188,38 1.90476188,28.5714286 C1.90476188,19.1428572 9.61904758,11.4285714 19.0476191,11.4285714 L60.9523809,11.4285714 C70.3809523,11.4285714 78.0952381,19.1428571 78.0952381,28.5714286 C78.0952381,38.0000001 70.3809524,45.7142857 60.9523809,45.7142857 Z" id="路径" fill="#FBD971"></path>
            <path d="M30.4742857,34.2857151 C30.1885714,34.2857151 29.8971428,34.2209524 29.6247619,34.0857143 L14.3866666,26.4666666 C13.4456787,25.9959096 13.0644812,24.8514642 13.5352382,23.9104762 C14.0059952,22.9694882 15.1504406,22.5882907 16.0914286,23.0590477 L31.3295238,30.6780952 C32.119265,31.0739073 32.5332286,31.9607713 32.3294586,32.820327 C32.1256885,33.6798827 31.3576642,34.2865394 30.4742857,34.2857151 Z M49.5257143,34.2857226 C48.640825,34.2883182 47.8706808,33.6811681 47.6666634,32.8201149 C47.4626461,31.9590616 47.878493,31.0709036 48.6704762,30.6761905 L63.9085714,23.0571429 C64.8495594,22.5863859 65.9940049,22.9675834 66.4647619,23.9085714 C66.9355189,24.8495594 66.5543214,25.9940049 65.6133334,26.4647619 L50.3752381,34.0838095 C50.1117604,34.2166497 49.8207855,34.2857226 49.5257143,34.2857226 L49.5257143,34.2857226 Z" id="形状" fill="#F29C1F"></path>
        </g>
    </g>
</svg>