<?xml version="1.0" encoding="UTF-8"?>
<svg width="81px" height="78px" viewBox="0 0 81 78" version="1.1" xmlns="http://www.w3.org/2000/svg" xmlns:xlink="http://www.w3.org/1999/xlink">
    <title>rich-1</title>
    <g id="页面-1" stroke="none" stroke-width="1" fill="none" fill-rule="evenodd">
        <g id="rich-1" transform="translate(0.008856, 0.071724)" fill-rule="nonzero">
            <path d="M1.42605441,38.5717298 C1.42605441,52.3520818 8.77778434,65.0856522 20.7119192,71.9758282 C32.646054,78.8660043 47.3495145,78.8660043 59.2836493,71.9758282 C71.2177842,65.0856522 78.5695141,52.3520818 78.5695141,38.5717298 C78.5695141,17.2691517 61.3003624,0 39.9977843,0 C18.6952061,0 1.42605441,17.2691517 1.42605441,38.5717298 Z" id="路径" fill="#FBD971"></path>
            <path d="M32.6489513,22.0409893 C32.3734389,22.0409893 32.0924164,21.978539 31.8297613,21.8481298 C27.8880978,19.8791348 22.8425482,17.8752416 18.7796594,19.9085229 C17.872271,20.3624707 16.76869,19.9948844 16.3147422,19.087496 C15.8607944,18.1801076 16.2283806,17.0765266 17.135769,16.6225788 C22.719486,13.8288835 29.1315769,16.3929852 33.4736517,18.5621858 C34.2351936,18.9438647 34.634376,19.7990616 34.4378819,20.6279253 C34.2413878,21.4567891 33.5007872,22.041784 32.6489513,22.0409893 L32.6489513,22.0409893 Z M45.5098682,22.0409965 C44.6565755,22.0434994 43.9139307,21.4580286 43.7171981,20.6277208 C43.5204655,19.797413 43.9214639,18.9409682 44.6851678,18.560349 C49.0254058,16.3911484 55.4374967,13.8307202 61.0230505,16.6207421 C61.9304389,17.0746899 62.2980251,18.1782709 61.8440773,19.0856593 C61.3901295,19.9930477 60.2865485,20.3606339 59.3791601,19.9066861 C55.3144345,17.8715682 50.2707217,19.8754614 46.3290582,21.8462931 C46.0750358,21.9745196 45.7944194,22.0412132 45.5098682,22.0409965 L45.5098682,22.0409965 Z M78.2866548,38.0849913 C76.2607206,35.3023165 73.8858041,33.6235279 71.2298649,33.0982177 C67.9916764,32.4553556 65.1392051,33.3443421 63.7653169,35.4217052 C62.6210222,37.1537595 62.7679621,39.4074506 64.1620546,41.4462421 C65.7636998,43.7880971 68.316781,44.1958554 69.5694438,44.07463 C70.5649618,43.9736088 71.2794572,43.0974795 71.1986402,42.1001247 C71.1178233,41.10277 70.219653,40.3019474 69.2369922,40.4176626 C68.4231223,40.4417909 67.6533812,40.0482599 67.1963641,39.3743892 C66.8841167,38.9207122 66.4249295,38.0647871 66.8326878,37.4476394 C67.2514665,36.8176345 68.5812728,36.3180388 70.5172063,36.7019193 C72.2621179,37.0490648 73.8343751,38.2080535 75.3184683,40.2505185 C76.6335806,42.054206 76.6629686,44.2932031 75.4047955,46.2383204 C74.3780528,47.8197613 72.1555865,49.4563047 69.2939315,48.8446673 C66.3128878,48.2146623 63.3226603,46.7783246 60.4040661,44.5742257 C56.9105694,41.9329806 53.253602,40.8731764 49.5488793,41.4425686 C45.1608859,42.1074717 41.8088188,44.9066773 40.0014578,46.7819981 C38.1940967,44.9066773 34.840193,42.1074717 30.4540362,41.4425686 C26.7474767,40.8713396 23.0941829,41.9329806 19.5988494,44.5742257 C16.6802552,46.7783246 13.6900278,48.2146623 10.7089841,48.8446673 C7.83998206,49.4544679 5.6211892,47.8197613 4.59811999,46.2383204 C3.33811018,44.2932032 3.36933489,42.0560429 4.68444725,40.2505185 C5.8764974,38.6103016 7.27610011,37.0472281 9.41040254,36.7166133 C10.8687813,36.4906931 11.9891982,36.843349 12.5530801,37.7084578 C12.9681854,38.3458098 12.9498179,39.0566316 12.7771635,39.3266337 C12.1104236,40.3662337 10.6097996,40.4121524 10.6134731,40.4121524 C9.59906464,40.4121524 8.77672409,41.2344929 8.77672409,42.2489014 C8.77672409,43.2633099 9.59906464,44.0856504 10.6134731,44.0856504 C11.9047077,44.0856504 14.4651359,43.5015642 15.8684122,41.3084859 C16.8804609,39.7288818 16.7849499,37.4751907 15.6296347,35.7027279 C14.2502362,33.5867929 11.7871557,32.6390305 8.84652059,33.0853605 C4.90853066,33.6951611 2.66953353,36.7735525 1.71258731,38.0868281 C-0.497021795,41.1229742 -0.574165216,45.0132087 1.51421842,48.2348666 C2.50273477,49.7624535 3.90201462,50.980298 5.55139279,51.7485675 C17.1486262,67.8862445 40.0014578,56.941057 40.0014578,56.941057 C40.0014578,56.941057 62.863473,67.8880813 74.4588697,51.7375469 C76.1052908,50.9721737 77.5026141,49.7581895 78.4905339,48.2348666 C80.5734073,45.0095353 80.4962639,41.1211376 78.2866548,38.0849913 Z" id="形状" fill="#414141"></path>
            <path d="M51.0182785,26.6328611 C51.0182785,28.1544738 52.2517893,29.3879847 53.7734021,29.3879847 C55.2950148,29.3879847 56.5285256,28.1544738 56.5285256,26.6328611 C56.5285256,25.1112484 55.2950148,23.8777375 53.7734021,23.8777375 C52.2517893,23.8777375 51.0182785,25.1112484 51.0182785,26.6328611 Z" id="路径" fill="#414141"></path>
            <path d="M23.4670429,26.6328611 C23.4670429,28.1544738 24.7005537,29.3879847 26.2221665,29.3879847 C27.7437792,29.3879847 28.97729,28.1544738 28.97729,26.6328611 C28.97729,25.1112484 27.7437792,23.8777375 26.2221665,23.8777375 C24.7005537,23.8777375 23.4670429,25.1112484 23.4670429,26.6328611 Z" id="路径" fill="#414141"></path>
        </g>
    </g>
</svg>