<?xml version="1.0" encoding="UTF-8"?>
<svg width="80px" height="80px" viewBox="0 0 80 80" version="1.1" xmlns="http://www.w3.org/2000/svg" xmlns:xlink="http://www.w3.org/1999/xlink">
    <title>表情 (2)</title>
    <g id="页面-1" stroke="none" stroke-width="1" fill="none" fill-rule="evenodd">
        <g id="表情-(2)" transform="translate(-0.000000, 0.000000)" fill-rule="nonzero">
            <path d="M14.3119266,25.6880734 C14.3119266,28.9657394 15.9206515,31.9944276 18.5321101,33.6332606 C21.1435688,35.2720936 24.3610185,35.2720936 26.9724771,33.6332606 C29.5839357,31.9944276 31.1926606,28.9657394 31.1926606,25.6880734 C31.1926606,20.6212408 27.4137796,16.5137614 22.7522936,16.5137614 C18.0908076,16.5137614 14.3119266,20.6212408 14.3119266,25.6880734 L14.3119266,25.6880734 Z" id="路径" fill="#303133"></path>
            <path d="M49.1743119,24.9541285 C49.1743119,29.0075945 51.8030987,32.293578 55.0458716,32.293578 C58.2886444,32.293578 60.9174312,29.0075945 60.9174312,24.9541285 C60.9174312,20.9006624 58.2886444,17.6146789 55.0458716,17.6146789 C51.8030987,17.6146789 49.1743119,20.9006624 49.1743119,24.9541285 L49.1743119,24.9541285 Z" id="路径" fill="#303133"></path>
            <polygon id="路径" fill="#303133" points="12.4770643 41.4678899 67.5229358 41.4678899 67.5229358 67.1559633 12.4770643 67.1559633"></polygon>
            <path d="M40,0 C17.9816514,0 0,17.9816513 0,40 C0,62.0183487 17.9816513,80 40,80 C62.0183487,80 80,62.0183487 80,40 C79.6330275,17.9816514 62.0183487,0 40,0 L40,0 Z M51.7431193,22.0183487 C51.7431193,20.5504588 53.2110092,19.0825688 54.6788991,19.0825688 C56.146789,19.0825688 57.6146789,20.5504587 57.6146789,22.0183487 L57.6146789,27.8899083 C57.6146789,29.3577982 56.146789,30.8256881 54.6788991,30.8256881 C53.2110092,30.8256881 51.7431193,29.3577982 51.7431193,27.8899083 L51.7431193,22.0183487 Z M21.2844037,22.0183487 C21.2844037,20.5504588 22.7522936,19.0825688 24.2201835,19.0825688 C25.6880734,19.0825688 27.1559634,20.5504587 27.1559634,22.0183487 L27.1559634,27.8899083 C27.1559634,29.3577982 25.6880735,30.8256881 24.2201835,30.8256881 C22.7522935,30.8256881 21.2844037,29.3577982 21.2844037,27.8899083 L21.2844037,22.0183487 Z M40,65.6880734 C27.8899083,65.6880734 17.6146789,57.2477064 15.0458715,45.8715597 L18.7155963,45.1376147 C20.9174312,54.6788991 29.7247706,62.0183487 40,62.0183487 C50.2752294,62.0183487 59.0825688,54.6788992 61.2844037,45.1376147 L64.9541285,45.8715597 C62.0183487,57.2477065 52.1100917,65.6880734 40,65.6880734 Z" id="形状" fill="#FBD971"></path>
        </g>
    </g>
</svg>