<svg width="188" height="89" viewBox="0 0 188 89" fill="none" xmlns="http://www.w3.org/2000/svg">
<g filter="url(#filter0_d_677_86894)">
<path d="M102.485 32.9706L94 24.4854L85.5147 32.9706H102.485Z" fill="url(#paint0_linear_677_86894)"/>
<path d="M28 32.9707C25.7909 32.9707 24 34.7616 24 36.9707V60.9707C24 63.1798 25.7909 64.9707 28 64.9707H160C162.209 64.9707 164 63.1798 164 60.9707V36.9707C164 34.7616 162.209 32.9707 160 32.9707H28Z" fill="url(#paint1_linear_677_86894)"/>
<path d="M37.7344 44.7656H46.3594V51.1289H45.3984V50.5781H38.6953V51.1289H37.7344V44.7656ZM40.1133 51.1523L41.0156 51.75C39.7109 53.2656 38.3828 54.5312 37.0312 55.5469C36.7812 55.3281 36.4883 55.082 36.1523 54.8086C37.6602 53.7773 38.9805 52.5586 40.1133 51.1523ZM43.6523 51.1172C45.1211 52.3359 46.5 53.5312 47.7891 54.7031C47.7266 54.7578 47.4258 55.0312 46.8867 55.5234C45.7227 54.2812 44.4062 53.0469 42.9375 51.8203L43.6523 51.1172ZM45.3984 49.7109V45.6328H38.6953V49.7109H45.3984ZM50.2266 55.5117H49.3359V51.668H53.1562L53.3496 50.7539H48.2344V50.0273H59.7656V50.7539H54.2578L54.0234 51.668H58.7227V54.293C58.7227 55.0664 58.3359 55.4531 57.5625 55.4531C57.1875 55.4531 56.7773 55.4453 56.332 55.4297C56.3086 55.1719 56.2539 54.8711 56.168 54.5273C56.6289 54.5742 57.0078 54.5977 57.3047 54.5977C57.6562 54.5977 57.832 54.4414 57.832 54.1289V52.3945H55.8164V55.1836H54.9844V52.3945H53.0391V55.1836H52.207V52.3945H50.2266V55.5117ZM48.6328 45.9727H53.5781V45.293H49.2188V44.5664H58.6875V45.293H54.4102V45.9727H59.3672V48.1523H58.4648V46.6992H54.4102V49.4883H53.5781V46.6992H49.5352V48.1523H48.6328V45.9727ZM55.0312 48.6914H57.7852V49.3242H55.0312V48.6914ZM50.2031 47.3789H52.957V48.0117H50.2031V47.3789ZM50.2031 48.6914H52.957V49.3242H50.2031V48.6914ZM55.0312 47.3789H57.7852V48.0117H55.0312V47.3789ZM63.3398 53.9707V46.207C63.1602 46.3867 62.8555 46.5879 62.4258 46.8105C62 47.0332 61.6055 47.1895 61.2422 47.2793V46.1543C61.7227 46.0215 62.2363 45.8105 62.7832 45.5215C63.3301 45.2285 63.75 44.9531 64.043 44.6953H64.4766V53.9707H63.3398ZM67.3945 48.3516H69.3867V45.0469H70.3242V48.3516H72.832V43.9805H73.7695V45.6914H77.8125V46.5352H73.7695V48.3516H78.7148V49.2188H67.3945V48.3516ZM67.3945 54.7969C71.8398 54.2578 75.0977 52.8125 77.168 50.4609L77.9062 51.1875C75.6797 53.6094 72.293 55.0938 67.7461 55.6406C67.6602 55.3906 67.543 55.1094 67.3945 54.7969ZM70.4062 49.9453L71.1562 50.5898C70.125 51.6602 69.1367 52.5859 68.1914 53.3672C68.0117 53.1484 67.8008 52.918 67.5586 52.6758C68.5195 51.9258 69.4688 51.0156 70.4062 49.9453ZM72.7383 49.5117H73.6758V52.9805H72.7383V49.5117ZM85.1602 49.2305C85.0352 51.8086 84.2422 53.9062 82.7812 55.5234C82.5547 55.2891 82.3164 55.0703 82.0664 54.8672C83.0586 53.7812 83.6992 52.6016 83.9883 51.3281C84.2695 50.2344 84.3984 48.3203 84.375 45.5859H83.332V44.7539H89.1797V45.6328L88.043 47.9883H90.082V48.8555C89.6367 50.293 89.0078 51.5547 88.1953 52.6406C89.0312 53.4375 89.9375 54.0781 90.9141 54.5625C90.6641 54.7891 90.4023 55.0781 90.1289 55.4297C89.1992 54.8516 88.3516 54.1719 87.5859 53.3906C86.7891 54.2656 85.8555 55.0039 84.7852 55.6055C84.5664 55.3164 84.3477 55.0664 84.1289 54.8555C85.2383 54.2227 86.1758 53.4961 86.9414 52.6758C86.2227 51.7852 85.6289 50.6367 85.1602 49.2305ZM79.1953 51.4219C80.0078 50.1562 80.582 48.7695 80.918 47.2617H79.2773V46.4766H80.9297V44.1562H81.7383V46.4766H83.2617V47.2617H81.7383V48.9844L82.1133 48.6094C82.6758 49.1016 83.1875 49.5781 83.6484 50.0391L83.0391 50.6719C82.6562 50.2422 82.2227 49.7891 81.7383 49.3125V55.5352H80.9297V49.5C80.5469 50.7188 80.0938 51.7031 79.5703 52.4531C79.4688 52.1172 79.3438 51.7734 79.1953 51.4219ZM87.0703 47.9648L88.1953 45.5859H85.2656C85.2656 46.1562 85.2617 46.6914 85.2539 47.1914C85.8633 49.2383 86.6289 50.8203 87.5508 51.9375C88.2617 51.0078 88.7812 49.9688 89.1094 48.8203H87.0703V47.9648ZM95.2266 47.2734H98.168V46.1367H94.6758V45.3281H98.168V44.0508H99.0352V45.3281H102.715V46.1367H99.0352V47.2734H101.977V50.6367H101.133V50.2734H99.0352V51.1172L99.3398 50.6484C100.496 51.2812 101.609 51.9102 102.68 52.5352L102.141 53.3672C101.047 52.625 100.012 51.9844 99.0352 51.4453V53.9883H98.168V50.9648C97.2227 52.0117 96.1406 52.8984 94.9219 53.625C94.7891 53.4219 94.5781 53.168 94.2891 52.8633C95.7109 52.1602 96.9062 51.2969 97.875 50.2734H96.0703V50.6367H95.2266V47.2734ZM96.0352 54.3867C97.9805 54.418 100.254 54.4023 102.855 54.3398C102.77 54.5977 102.66 54.9062 102.527 55.2656C99.9414 55.2812 97.7188 55.2656 95.8594 55.2188C94.5312 55.2031 93.6016 54.7461 93.0703 53.8477C92.75 54.1445 92.2812 54.668 91.6641 55.418L91.1836 54.4453C91.8711 53.7812 92.3711 53.3047 92.6836 53.0156V49.0664H91.2891V48.1992H93.5859V53.2148C94.0625 53.9883 94.8789 54.3789 96.0352 54.3867ZM101.133 48.0352H99.0352V49.5117H101.133V48.0352ZM96.0703 49.5117H98.168V48.0352H96.0703V49.5117ZM92.543 44.2617C92.9414 44.7461 93.4883 45.4844 94.1836 46.4766L93.3516 47.0625C92.7188 46.0703 92.1992 45.3047 91.793 44.7656L92.543 44.2617ZM106.09 53.9414H110.027V50.6133H106.98V49.7227H110.027V46.8867H106.652V45.9961H110.391C110.023 45.4141 109.648 44.8828 109.266 44.4023L110.039 43.9102C110.562 44.5195 110.977 45.0586 111.281 45.5273L110.549 45.9961H114.48V46.8867H111.012V49.7227H114.059V50.6133H111.012V53.9414H114.809V54.832H106.09V53.9414ZM104.836 50.5664C105.156 50.707 105.465 50.8359 105.762 50.9531C105.332 52.3281 104.883 53.8281 104.414 55.4531L103.406 55.1016C103.898 53.7656 104.375 52.2539 104.836 50.5664ZM104.227 44.1562C104.984 44.7266 105.66 45.2969 106.254 45.8672C105.988 46.1328 105.754 46.3711 105.551 46.582C105.129 46.1367 104.488 45.543 103.629 44.8008L104.227 44.1562ZM103.781 47.1914C104.344 47.582 105.035 48.1133 105.855 48.7852C105.566 49.1133 105.336 49.3672 105.164 49.5469C104.344 48.7969 103.688 48.2344 103.195 47.8594L103.781 47.1914ZM121.711 44.6016H125.578V48.7969H126.832V49.6641H125.578V54.1523C125.578 54.9648 125.203 55.3711 124.453 55.3711C123.914 55.3711 123.414 55.3594 122.953 55.3359C122.93 55.1094 122.879 54.8203 122.801 54.4688C123.371 54.5234 123.828 54.5508 124.172 54.5508C124.516 54.5508 124.688 54.3711 124.688 54.0117V49.6641H122.602V50.3555C122.602 52.4414 122.16 54.1797 121.277 55.5703C121.09 55.3672 120.852 55.1484 120.562 54.9141C121.328 53.7109 121.711 52.207 121.711 50.4023V49.6641H120.223V53.8008C120.223 54.582 119.836 54.9727 119.062 54.9727C118.641 54.9727 118.234 54.9609 117.844 54.9375C117.82 54.7109 117.77 54.418 117.691 54.0586C118.121 54.1133 118.504 54.1406 118.84 54.1406C119.168 54.1406 119.332 53.9648 119.332 53.6133V49.6641H117.328V50.5078C117.328 52.6016 116.883 54.2891 115.992 55.5703C115.805 55.3438 115.57 55.125 115.289 54.9141C116.047 53.75 116.426 52.3086 116.426 50.5898V49.6641H115.277V48.7969H116.426V44.6016H120.223V48.7969H121.711V44.6016ZM124.688 45.4219H122.602V48.7969H124.688V45.4219ZM119.332 45.4219H117.328V48.7969H119.332V45.4219ZM129.141 49.4062H136.863V53.0156H135.973V52.5938H130.031V53.0156H129.141V49.4062ZM127.324 54.3867H131.25C130.969 54.1133 130.559 53.7344 130.02 53.25L130.582 52.6875C131.059 53.0781 131.539 53.4961 132.023 53.9414L131.543 54.3867H134.355L133.957 53.9883C134.457 53.5352 134.902 53.0898 135.293 52.6523L136.008 53.2383C135.641 53.6055 135.23 53.9883 134.777 54.3867H138.785V55.1836H127.324V54.3867ZM133.945 44.1328C134.125 44.6172 134.324 45.0625 134.543 45.4688C135.402 45 136.152 44.5469 136.793 44.1094L137.367 44.8477C136.633 45.2852 135.84 45.7305 134.988 46.1836C135.199 46.4961 135.43 46.7812 135.68 47.0391C136.5 46.5859 137.262 46.125 137.965 45.6562L138.551 46.4062C137.902 46.8047 137.172 47.2227 136.359 47.6602C137.109 48.2461 137.984 48.6367 138.984 48.832C138.758 49.1445 138.543 49.4609 138.34 49.7812C135.855 48.9219 134.117 47.1484 133.125 44.4609L133.945 44.1328ZM135.973 50.1797H130.031V51.8203H135.973V50.1797ZM127.84 45.5508V44.7539H132.48V45.5625C131.426 47.3594 129.793 48.8711 127.582 50.0977C127.434 49.832 127.27 49.5586 127.09 49.2773C127.91 48.8555 128.574 48.4492 129.082 48.0586C128.59 47.5508 128.086 47.0508 127.57 46.5586L128.121 46.0078C128.707 46.5391 129.246 47.043 129.738 47.5195C130.387 46.9492 130.941 46.293 131.402 45.5508H127.84ZM130.98 47.6133H134.953V48.3867H130.98V47.6133ZM149.262 49.8984L149.941 50.6719C149.277 51.1094 148.453 51.625 147.469 52.2188C148.383 52.9297 149.523 53.4414 150.891 53.7539C150.648 54.0898 150.434 54.4102 150.246 54.7148C148.121 54.0664 146.559 52.9648 145.559 51.4102V53.9531C145.559 54.8984 145.074 55.3711 144.105 55.3711C143.645 55.3711 143.098 55.3633 142.465 55.3477C142.418 55.0586 142.363 54.7227 142.301 54.3398C142.863 54.4023 143.367 54.4375 143.812 54.4453C144.367 54.4453 144.645 54.1953 144.645 53.6953V49.5H139.371V48.7148H148.113V47.4609H140.848V46.7109H148.113V45.4688H140.625V44.6836H148.992V48.7148H150.809V49.5H145.559V49.7695C145.879 50.4727 146.293 51.0898 146.801 51.6211C147.707 51.0352 148.527 50.4609 149.262 49.8984ZM139.207 53.5195C140.738 53.043 142.398 52.4766 144.188 51.8203C144.25 52.1641 144.309 52.4609 144.363 52.7109C142.809 53.25 141.211 53.8164 139.57 54.4102L139.207 53.5195ZM140.836 49.8164C141.586 50.2695 142.348 50.7617 143.121 51.293L142.547 52.0664C141.836 51.5273 141.086 51.0039 140.297 50.4961L140.836 49.8164Z" fill="white"/>
</g>
<defs>
<filter id="filter0_d_677_86894" x="-1" y="-1" width="190" height="91" filterUnits="userSpaceOnUse" color-interpolation-filters="sRGB">
<feFlood flood-opacity="0" result="BackgroundImageFix"/>
<feColorMatrix in="SourceAlpha" type="matrix" values="0 0 0 0 0 0 0 0 0 0 0 0 0 0 0 0 0 0 127 0" result="hardAlpha"/>
<feOffset/>
<feGaussianBlur stdDeviation="12"/>
<feComposite in2="hardAlpha" operator="out"/>
<feColorMatrix type="matrix" values="0 0 0 0 0.627451 0 0 0 0 0.67451 0 0 0 0 0.733333 0 0 0 0.2 0"/>
<feBlend mode="normal" in2="BackgroundImageFix" result="effect1_dropShadow_677_86894"/>
<feBlend mode="normal" in="SourceGraphic" in2="effect1_dropShadow_677_86894" result="shape"/>
</filter>
<linearGradient id="paint0_linear_677_86894" x1="24" y1="24.4854" x2="55.133" y2="106.365" gradientUnits="userSpaceOnUse">
<stop stop-color="#FF4930"/>
<stop offset="1" stop-color="#EE7942"/>
</linearGradient>
<linearGradient id="paint1_linear_677_86894" x1="24" y1="24.4854" x2="55.133" y2="106.365" gradientUnits="userSpaceOnUse">
<stop stop-color="#FF4930"/>
<stop offset="1" stop-color="#EE7942"/>
</linearGradient>
</defs>
</svg>
