<svg width="111" height="40" viewBox="0 0 111 40" fill="none" xmlns="http://www.w3.org/2000/svg">
<path d="M14.816 12.928H0.896V10.688H14.816V12.928ZM26.214 17.536C26.95 17.568 27.686 17.584 28.422 17.584C29.1687 17.5733 29.91 17.5467 30.646 17.504L30.358 19.056C28.918 19.152 27.4833 19.168 26.054 19.104C25.3713 19.072 24.7313 18.9547 24.134 18.752C23.5473 18.56 23.0087 18.1867 22.518 17.632C22.358 17.9307 22.182 18.224 21.99 18.512C21.798 18.8107 21.5847 19.12 21.35 19.44L20.038 18.288C20.358 17.936 20.662 17.5573 20.95 17.152C20.8753 17.2053 20.758 17.2907 20.598 17.408C20.4487 17.5147 20.278 17.6373 20.086 17.776C19.9047 17.9147 19.718 18.0533 19.526 18.192C19.3447 18.3413 19.1847 18.48 19.046 18.608C18.9073 18.736 18.774 18.8587 18.646 18.976C18.518 19.0933 18.4007 19.2 18.294 19.296L17.366 17.824C17.5473 17.6747 17.6593 17.5467 17.702 17.44C17.7553 17.3227 17.782 17.152 17.782 16.928V14.384H16.662V12.704H17.782V11.344H17.302V10.16L17.238 10.256L15.99 9.168C16.47 8.496 16.87 7.81867 17.19 7.136C17.5207 6.45333 17.798 5.776 18.022 5.104L19.606 5.44C19.5207 5.68533 19.4353 5.92533 19.35 6.16C19.2647 6.384 19.174 6.61333 19.078 6.848H20.806V8.528H18.262C18.166 8.70933 18.0593 8.896 17.942 9.088C17.8353 9.26933 17.7233 9.46133 17.606 9.664H20.326V11.344H19.366V12.704H20.438V14.384H19.366V16.416C19.5367 16.2773 19.7127 16.128 19.894 15.968C20.086 15.808 20.2567 15.6587 20.406 15.52L20.982 17.104C21.1953 16.7627 21.382 16.432 21.542 16.112C21.3713 15.7387 21.2113 15.328 21.062 14.88C20.9233 14.432 20.7953 13.9253 20.678 13.36L22.006 13.024C22.0487 13.2053 22.086 13.3867 22.118 13.568C22.1607 13.7387 22.2087 13.9093 22.262 14.08C22.422 13.3973 22.518 12.6827 22.55 11.936H20.71V10.336L22.358 7.712H21.142V6.096H24.054V7.728L22.438 10.336H24.086V11.984C23.9687 12.816 23.846 13.5627 23.718 14.224C23.59 14.8853 23.414 15.52 23.19 16.128C23.51 16.5547 23.91 16.8907 24.39 17.136C24.87 17.3707 25.478 17.504 26.214 17.536ZM25.974 9.904H24.166V8.48H25.974V7.792H24.55V6.368H25.974V5.28L27.478 5.344V6.368H29.814V8.48H30.374V9.904H29.814V12.032H27.478V12.672H29.766V14.096H27.478V14.72H30.134V16.144H27.478V17.184H25.974V16.144H24.022V14.72H25.974V14.096H24.502V12.672H25.974V12.032H24.534V10.592H25.974V9.904ZM27.478 8.48H28.374V7.792H27.478V8.48ZM28.374 9.904H27.478V10.592H28.374V9.904ZM39.132 13.6H32.652V11.744H36.796V7.568H34.86C34.9667 7.74933 35.0947 7.97333 35.244 8.24C35.3933 8.50667 35.548 8.78933 35.708 9.088C35.868 9.38667 36.0227 9.68533 36.172 9.984C36.3213 10.272 36.4493 10.5333 36.556 10.768L34.94 11.68C34.844 11.456 34.7213 11.184 34.572 10.864C34.4227 10.544 34.2627 10.224 34.092 9.904C33.932 9.584 33.772 9.28533 33.612 9.008C33.4627 8.73067 33.3347 8.51733 33.228 8.368L34.7 7.568H33.372V5.712H45.34V7.568H41.916V11.744H46.06V13.6H39.724C39.8627 13.7493 40.012 13.9253 40.172 14.128C40.332 14.32 40.4867 14.5173 40.636 14.72C40.796 14.9227 40.9453 15.1147 41.084 15.296C41.2227 15.4773 41.3347 15.632 41.42 15.76L40.044 16.912C39.9587 16.752 39.836 16.56 39.676 16.336C39.516 16.1013 39.3453 15.8613 39.164 15.616C38.9827 15.36 38.8013 15.12 38.62 14.896C38.4387 14.6613 38.2787 14.4693 38.14 14.32L39.132 13.6ZM38.732 11.744H39.98V7.568H38.732V11.744ZM42.028 10.8C42.188 10.5867 42.3533 10.3413 42.524 10.064C42.7053 9.78667 42.876 9.504 43.036 9.216C43.2067 8.928 43.3613 8.64533 43.5 8.368C43.6493 8.08 43.7667 7.82933 43.852 7.616L45.42 8.464C45.3133 8.688 45.18 8.94933 45.02 9.248C44.8707 9.536 44.7107 9.83467 44.54 10.144C44.3693 10.4427 44.1987 10.7307 44.028 11.008C43.8573 11.2853 43.708 11.52 43.58 11.712L42.028 10.8ZM44.252 13.936C44.444 14.16 44.652 14.4213 44.876 14.72C45.1107 15.008 45.34 15.3067 45.564 15.616C45.788 15.9253 45.996 16.2347 46.188 16.544C46.3907 16.8533 46.5667 17.136 46.716 17.392L45.26 18.544C45.132 18.2667 44.9667 17.968 44.764 17.648C44.572 17.3173 44.364 16.992 44.14 16.672C43.9267 16.3413 43.708 16.0267 43.484 15.728C43.26 15.4293 43.0627 15.1627 42.892 14.928L44.252 13.936ZM41.548 16.976C41.5693 16.8267 41.5907 16.6827 41.612 16.544C41.6333 16.4053 41.6493 16.2613 41.66 16.112L43.388 16.624C43.3773 16.8053 43.3613 16.992 43.34 17.184C43.3187 17.3653 43.2867 17.5787 43.244 17.824C43.1907 18.176 43.1053 18.4533 42.988 18.656C42.8813 18.8693 42.732 19.0347 42.54 19.152C42.348 19.2693 42.108 19.3493 41.82 19.392C41.5427 19.4347 41.2067 19.4667 40.812 19.488C39.82 19.5413 38.828 19.5413 37.836 19.488C37.4947 19.4773 37.196 19.4347 36.94 19.36C36.684 19.296 36.4653 19.1893 36.284 19.04C36.1133 18.8907 35.98 18.688 35.884 18.432C35.7987 18.176 35.756 17.8453 35.756 17.44V14.064L37.788 14.128V16.848C37.788 17.1253 37.8307 17.3227 37.916 17.44C38.0013 17.5467 38.1987 17.6053 38.508 17.616C39.2227 17.6693 39.9427 17.6693 40.668 17.616C40.8387 17.6053 40.9773 17.5893 41.084 17.568C41.1907 17.5467 41.276 17.5147 41.34 17.472C41.404 17.4293 41.4467 17.3707 41.468 17.296C41.5 17.2107 41.5267 17.104 41.548 16.976ZM32.028 17.856C32.1987 17.6 32.3747 17.3227 32.556 17.024C32.7373 16.7253 32.9133 16.4213 33.084 16.112C33.2547 15.792 33.4147 15.472 33.564 15.152C33.7133 14.8213 33.8467 14.5013 33.964 14.192L35.66 14.912C35.5427 15.2213 35.404 15.5467 35.244 15.888C35.084 16.2293 34.908 16.5707 34.716 16.912C34.5347 17.2533 34.348 17.5893 34.156 17.92C33.9747 18.24 33.7987 18.5333 33.628 18.8L32.028 17.856ZM61.986 6.352V7.952H52.946V6.352H56.354L56.098 5.312L58.002 5.216L58.242 6.352H61.986ZM52.93 12.432H61.73V17.584C61.73 17.9253 61.7033 18.208 61.65 18.432C61.6073 18.6667 61.5273 18.8587 61.41 19.008C61.3033 19.1573 61.154 19.2693 60.962 19.344C60.77 19.4187 60.5247 19.472 60.226 19.504L59.394 19.584L58.866 17.904L59.458 17.84C59.7247 17.808 59.8847 17.7547 59.938 17.68C59.9913 17.6053 60.018 17.4453 60.018 17.2V13.904H54.498V19.568H52.818V12.8C52.658 12.8747 52.4767 12.9547 52.274 13.04C52.0713 13.1147 51.8527 13.2 51.618 13.296V17.616C51.618 17.9787 51.586 18.2773 51.522 18.512C51.4687 18.7573 51.378 18.9547 51.25 19.104C51.122 19.264 50.9567 19.3813 50.754 19.456C50.5513 19.5413 50.306 19.6 50.018 19.632L48.994 19.744L48.402 17.84L49.234 17.728C49.4687 17.696 49.6233 17.6267 49.698 17.52C49.7833 17.4133 49.826 17.248 49.826 17.024V14.016C49.506 14.144 49.2127 14.2667 48.946 14.384C48.6793 14.4907 48.4553 14.5867 48.274 14.672L47.746 12.736L49.826 11.968V9.744H48.466V7.872H49.826V5.488L51.618 5.568V7.872H52.77V9.744H51.618V11.264L52.466 10.896L52.706 11.76L52.93 12.432ZM60.946 8.432V11.936H53.57V8.432H60.946ZM59.154 9.936H55.33V10.448H59.154V9.936ZM59.41 17.744H55.186V14.432H59.41V17.744ZM57.922 15.696H56.642V16.432H57.922V15.696ZM77.768 17.088V19.072H64.264V17.088H70.152V14.256H65.752V12.304H70.152V9.952H67.064C66.8187 10.4533 66.5573 10.9387 66.28 11.408C66.0133 11.8667 65.7253 12.336 65.416 12.816L63.656 11.744C64.3173 10.8373 64.8987 9.904 65.4 8.944C65.9013 7.97333 66.2907 6.928 66.568 5.808L68.44 6.32C68.28 6.896 68.104 7.44 67.912 7.952H70.152V5.312L72.232 5.392V7.952H77.032V9.952H72.232V12.304H76.52V14.256H72.232V17.088H77.768ZM93.934 16.16C93.8807 16.4053 93.8273 16.672 93.774 16.96C93.7207 17.2373 93.6567 17.5147 93.582 17.792C93.454 18.24 93.31 18.5867 93.15 18.832C92.99 19.088 92.8193 19.2747 92.638 19.392C92.4673 19.52 92.2807 19.5947 92.078 19.616C91.886 19.648 91.6833 19.664 91.47 19.664C91.0007 19.664 90.574 19.504 90.19 19.184C89.806 18.864 89.3953 18.3413 88.958 17.616C88.8833 17.5093 88.8247 17.4027 88.782 17.296C88.142 17.9573 87.3953 18.608 86.542 19.248L85.374 17.856C85.0433 18.0267 84.59 18.144 84.014 18.208L83.166 18.304L82.526 16.368L83.374 16.272C83.7473 16.2293 84.0033 16.16 84.142 16.064C84.2913 15.9573 84.3767 15.7653 84.398 15.488C84.4087 15.3813 84.4193 15.1893 84.43 14.912C84.4513 14.6347 84.4727 14.352 84.494 14.064C84.5153 13.7653 84.5313 13.488 84.542 13.232C84.5633 12.976 84.574 12.8053 84.574 12.72H82.702C82.6807 13.4667 82.6273 14.1493 82.542 14.768C82.4673 15.3867 82.3553 15.968 82.206 16.512C82.0673 17.056 81.886 17.5787 81.662 18.08C81.4487 18.592 81.1927 19.1147 80.894 19.648L79.054 18.736C79.374 18.2133 79.646 17.728 79.87 17.28C80.1047 16.8213 80.2967 16.336 80.446 15.824C80.5953 15.3013 80.702 14.7253 80.766 14.096C80.8407 13.456 80.878 12.6933 80.878 11.808V7.296H86.75C86.7287 7.09333 86.7073 6.89067 86.686 6.688C86.6753 6.47467 86.6593 6.27733 86.638 6.096C86.6273 5.91467 86.6167 5.74933 86.606 5.6C86.5953 5.45067 86.59 5.33333 86.59 5.248L88.462 5.296C88.4727 5.44533 88.4887 5.69067 88.51 6.032C88.5313 6.36267 88.5633 6.784 88.606 7.296H90.334C90.1207 7.08267 89.9233 6.88533 89.742 6.704C89.5607 6.52267 89.374 6.34133 89.182 6.16L90.35 4.992C90.6273 5.248 90.9207 5.52533 91.23 5.824C91.5393 6.12267 91.8647 6.45867 92.206 6.832L91.774 7.296H93.07V9.264H88.766C88.8513 10.096 88.942 10.8693 89.038 11.584C89.1447 12.288 89.2673 12.944 89.406 13.552C89.7473 13.008 90.046 12.432 90.302 11.824C90.558 11.216 90.798 10.5547 91.022 9.84L92.67 10.512C92.3287 11.5147 91.9553 12.4427 91.55 13.296C91.1447 14.1493 90.6593 14.96 90.094 15.728C90.19 15.9627 90.2913 16.1813 90.398 16.384C90.5047 16.5867 90.6167 16.7787 90.734 16.96C90.8833 17.1733 91.0273 17.3227 91.166 17.408C91.3047 17.4827 91.406 17.52 91.47 17.52C91.5127 17.52 91.5553 17.5147 91.598 17.504C91.6407 17.4827 91.6833 17.4453 91.726 17.392C91.7687 17.328 91.8113 17.2427 91.854 17.136C91.9073 17.0187 91.9607 16.8693 92.014 16.688C92.0567 16.5387 92.0993 16.3573 92.142 16.144C92.1847 15.9307 92.2327 15.6853 92.286 15.408L93.934 16.16ZM85.95 17.264C86.75 16.6453 87.4327 16.0267 87.998 15.408C87.7527 14.608 87.534 13.7067 87.342 12.704C87.1607 11.6907 87.0113 10.544 86.894 9.264H82.718V10.784H86.51C86.51 10.8907 86.5047 11.0773 86.494 11.344C86.4833 11.6107 86.4727 11.92 86.462 12.272C86.4513 12.624 86.4353 12.9973 86.414 13.392C86.3927 13.776 86.3713 14.144 86.35 14.496C86.3393 14.848 86.3233 15.1627 86.302 15.44C86.2807 15.7067 86.2647 15.8987 86.254 16.016C86.2113 16.5493 86.11 16.9653 85.95 17.264ZM108.852 15.488C108.745 15.4667 108.639 15.4507 108.532 15.44C108.436 15.4187 108.335 15.3973 108.228 15.376V19.2H102.724V14.416H105.14C104.105 13.9467 103.199 13.3387 102.42 12.592H102.244C101.945 12.9547 101.567 13.28 101.108 13.568C100.66 13.856 100.079 14.1387 99.364 14.416H101.908V19.2H96.468V15.36L95.78 15.552L95.156 13.76C96.0947 13.5893 96.8947 13.4133 97.556 13.232C98.228 13.04 98.7933 12.8267 99.252 12.592H95.86V10.88H101.012C101.065 10.7627 101.113 10.64 101.156 10.512C101.209 10.384 101.252 10.2453 101.284 10.096H96.42V5.584H101.908V10.032L103.396 10.288C103.364 10.3947 103.327 10.496 103.284 10.592C103.252 10.688 103.22 10.784 103.188 10.88H104.836C104.815 10.7947 104.788 10.7093 104.756 10.624C104.724 10.5387 104.697 10.4587 104.676 10.384L106.212 10.128C106.265 10.256 106.308 10.384 106.34 10.512C106.383 10.64 106.425 10.7627 106.468 10.88H108.82V12.592H105.14C105.652 12.8587 106.265 13.0827 106.98 13.264C107.695 13.4347 108.553 13.5947 109.556 13.744L108.852 15.488ZM108.228 10.096H102.74V5.584H108.228V10.096ZM100.148 7.184H98.18V8.464H100.148V7.184ZM106.516 7.184H104.484V8.464H106.516V7.184ZM100.148 15.92H98.228V17.616H100.148V15.92ZM106.484 15.92H104.468V17.616H106.484V15.92Z" fill="#1B1F25"/>
<path d="M4.224 28.4C4.768 28.4 5.212 28.484 5.556 28.652C5.908 28.812 6.18 29.04 6.372 29.336C6.572 29.632 6.708 29.988 6.78 30.404C6.86 30.812 6.9 31.264 6.9 31.76C6.9 32.208 6.86 32.636 6.78 33.044C6.708 33.444 6.572 33.8 6.372 34.112C6.18 34.416 5.908 34.66 5.556 34.844C5.212 35.028 4.768 35.12 4.224 35.12C3.592 35.12 3.116 35.008 2.796 34.784C2.484 34.56 2.26 34.256 2.124 33.872V37.4H1.092V28.52H2.124V29.684C2.26 29.3 2.488 28.992 2.808 28.76C3.128 28.52 3.6 28.4 4.224 28.4ZM4.092 34.244C4.476 34.244 4.78 34.176 5.004 34.04C5.236 33.896 5.412 33.708 5.532 33.476C5.652 33.244 5.728 32.98 5.76 32.684C5.8 32.38 5.82 32.072 5.82 31.76C5.82 31.416 5.8 31.096 5.76 30.8C5.72 30.496 5.64 30.232 5.52 30.008C5.4 29.776 5.224 29.596 4.992 29.468C4.768 29.332 4.468 29.264 4.092 29.264C3.7 29.264 3.376 29.324 3.12 29.444C2.864 29.556 2.656 29.72 2.496 29.936C2.344 30.152 2.236 30.416 2.172 30.728C2.108 31.032 2.076 31.376 2.076 31.76C2.076 32.136 2.108 32.476 2.172 32.78C2.236 33.084 2.344 33.344 2.496 33.56C2.656 33.776 2.864 33.944 3.12 34.064C3.376 34.184 3.7 34.244 4.092 34.244ZM11.4092 35.072C11.2492 35.072 11.0772 35.064 10.8932 35.048C10.7172 35.04 10.5412 35.028 10.3652 35.012C10.1892 34.996 10.0252 34.976 9.87319 34.952C9.72919 34.92 9.61319 34.892 9.52519 34.868V33.98C9.63719 34.012 9.76919 34.044 9.92119 34.076C10.0812 34.108 10.2452 34.136 10.4132 34.16C10.5812 34.184 10.7492 34.204 10.9172 34.22C11.0932 34.228 11.2532 34.232 11.3972 34.232C11.8932 34.232 12.2652 34.164 12.5132 34.028C12.7692 33.884 12.8972 33.62 12.8972 33.236C12.8972 33.044 12.8772 32.888 12.8372 32.768C12.8052 32.64 12.7372 32.536 12.6332 32.456C12.5292 32.368 12.3812 32.292 12.1892 32.228C12.0052 32.164 11.7572 32.096 11.4452 32.024C11.0852 31.944 10.7892 31.852 10.5572 31.748C10.3252 31.644 10.1412 31.52 10.0052 31.376C9.86919 31.232 9.77319 31.06 9.71719 30.86C9.66119 30.66 9.63319 30.424 9.63319 30.152C9.63319 29.624 9.82519 29.2 10.2092 28.88C10.6012 28.56 11.1852 28.4 11.9612 28.4C12.2732 28.4 12.5812 28.42 12.8852 28.46C13.1972 28.5 13.4332 28.552 13.5932 28.616L13.5212 29.492C13.3372 29.42 13.1092 29.36 12.8372 29.312C12.5652 29.264 12.2772 29.24 11.9732 29.24C11.5172 29.24 11.1732 29.304 10.9412 29.432C10.7172 29.56 10.6052 29.808 10.6052 30.176C10.6052 30.344 10.6212 30.48 10.6532 30.584C10.6932 30.688 10.7572 30.78 10.8452 30.86C10.9332 30.932 11.0572 30.996 11.2172 31.052C11.3772 31.1 11.5852 31.152 11.8412 31.208C12.2092 31.296 12.5212 31.392 12.7772 31.496C13.0412 31.592 13.2532 31.716 13.4132 31.868C13.5732 32.012 13.6892 32.192 13.7612 32.408C13.8332 32.624 13.8692 32.888 13.8692 33.2C13.8692 33.848 13.6572 34.324 13.2332 34.628C12.8172 34.924 12.2092 35.072 11.4092 35.072ZM17.5714 35.072C17.2914 35.072 17.0914 35.028 16.9714 34.94C16.8594 34.852 16.8034 34.64 16.8034 34.304C16.8034 33.984 16.8594 33.78 16.9714 33.692C17.0914 33.604 17.2914 33.56 17.5714 33.56C17.8434 33.56 18.0394 33.604 18.1594 33.692C18.2794 33.78 18.3394 33.984 18.3394 34.304C18.3394 34.64 18.2794 34.852 18.1594 34.94C18.0394 35.028 17.8434 35.072 17.5714 35.072ZM21.3845 36.512C21.9445 36.512 22.3605 36.388 22.6325 36.14C22.9125 35.892 23.1325 35.508 23.2925 34.988L20.7005 28.52H21.8165L23.7965 33.896H23.8685L25.7405 28.52H26.7845L24.4565 34.784C24.3045 35.192 24.1485 35.556 23.9885 35.876C23.8285 36.196 23.6325 36.468 23.4005 36.692C23.1765 36.924 22.9045 37.1 22.5845 37.22C22.2645 37.34 21.8645 37.4 21.3845 37.4V36.512ZM29.7286 27.332C29.4966 27.332 29.3326 27.296 29.2366 27.224C29.1486 27.152 29.1046 26.984 29.1046 26.72C29.1046 26.448 29.1486 26.28 29.2366 26.216C29.3326 26.144 29.4966 26.108 29.7286 26.108C29.9446 26.108 30.1006 26.144 30.1966 26.216C30.2926 26.28 30.3406 26.448 30.3406 26.72C30.3406 26.984 30.2926 27.152 30.1966 27.224C30.1006 27.296 29.9446 27.332 29.7286 27.332ZM29.2006 28.52H30.2326V35H29.2006V28.52ZM34.1395 27.332C33.9075 27.332 33.7435 27.296 33.6475 27.224C33.5595 27.152 33.5155 26.984 33.5155 26.72C33.5155 26.448 33.5595 26.28 33.6475 26.216C33.7435 26.144 33.9075 26.108 34.1395 26.108C34.3555 26.108 34.5115 26.144 34.6075 26.216C34.7035 26.28 34.7515 26.448 34.7515 26.72C34.7515 26.984 34.7035 27.152 34.6075 27.224C34.5115 27.296 34.3555 27.332 34.1395 27.332ZM32.4355 37.4C32.3075 37.4 32.1835 37.392 32.0635 37.376C31.9355 37.368 31.8075 37.356 31.6795 37.34V36.488C31.7915 36.504 31.9195 36.516 32.0635 36.524C32.2075 36.54 32.3555 36.548 32.5075 36.548C32.7395 36.548 32.9275 36.52 33.0715 36.464C33.2155 36.408 33.3275 36.312 33.4075 36.176C33.4875 36.04 33.5395 35.86 33.5635 35.636C33.5955 35.412 33.6115 35.136 33.6115 34.808V28.52H34.6435V34.916C34.6435 35.436 34.5955 35.856 34.4995 36.176C34.4115 36.504 34.2755 36.756 34.0915 36.932C33.9075 37.116 33.6755 37.24 33.3955 37.304C33.1235 37.368 32.8035 37.4 32.4355 37.4ZM38.5505 27.332C38.3185 27.332 38.1545 27.296 38.0585 27.224C37.9705 27.152 37.9265 26.984 37.9265 26.72C37.9265 26.448 37.9705 26.28 38.0585 26.216C38.1545 26.144 38.3185 26.108 38.5505 26.108C38.7665 26.108 38.9225 26.144 39.0185 26.216C39.1145 26.28 39.1625 26.448 39.1625 26.72C39.1625 26.984 39.1145 27.152 39.0185 27.224C38.9225 27.296 38.7665 27.332 38.5505 27.332ZM38.0225 28.52H39.0545V35H38.0225V28.52ZM45.0014 28.4C45.5134 28.4 45.9334 28.452 46.2614 28.556C46.5974 28.652 46.8614 28.788 47.0534 28.964C47.2534 29.14 47.3894 29.352 47.4614 29.6C47.5414 29.848 47.5814 30.116 47.5814 30.404V35H46.7054L46.5494 34.016C46.4534 34.192 46.3254 34.348 46.1654 34.484C46.0054 34.62 45.8214 34.736 45.6134 34.832C45.4134 34.928 45.1934 35 44.9534 35.048C44.7134 35.096 44.4734 35.12 44.2334 35.12C43.4574 35.12 42.8894 34.952 42.5294 34.616C42.1774 34.28 42.0014 33.804 42.0014 33.188C42.0014 32.804 42.0614 32.48 42.1814 32.216C42.3094 31.952 42.4854 31.74 42.7094 31.58C42.9334 31.42 43.2014 31.304 43.5134 31.232C43.8334 31.16 44.1854 31.124 44.5694 31.124H46.5494V30.584C46.5494 30.392 46.5254 30.216 46.4774 30.056C46.4374 29.888 46.3574 29.748 46.2374 29.636C46.1254 29.516 45.9654 29.424 45.7574 29.36C45.5494 29.296 45.2814 29.264 44.9534 29.264C44.7374 29.264 44.5014 29.276 44.2454 29.3C43.9974 29.324 43.7574 29.36 43.5254 29.408V28.496C43.7654 28.464 44.0134 28.44 44.2694 28.424C44.5254 28.408 44.7694 28.4 45.0014 28.4ZM44.3294 34.256C44.8734 34.256 45.3374 34.148 45.7214 33.932C46.1054 33.708 46.3814 33.404 46.5494 33.02V31.952H44.6414C44.3774 31.952 44.1454 31.968 43.9454 32C43.7454 32.032 43.5814 32.096 43.4534 32.192C43.3254 32.28 43.2294 32.404 43.1654 32.564C43.1014 32.724 43.0694 32.928 43.0694 33.176C43.0694 33.536 43.1654 33.808 43.3574 33.992C43.5494 34.168 43.8734 34.256 44.3294 34.256ZM54.0891 28.4C54.5131 28.4 54.8651 28.452 55.1451 28.556C55.4251 28.66 55.6451 28.808 55.8051 29C55.9731 29.184 56.0891 29.404 56.1531 29.66C56.2251 29.916 56.2611 30.2 56.2611 30.512V35H55.2171V30.896C55.2171 30.648 55.2011 30.428 55.1691 30.236C55.1371 30.036 55.0731 29.872 54.9771 29.744C54.8891 29.608 54.7651 29.504 54.6051 29.432C54.4451 29.36 54.2371 29.324 53.9811 29.324C53.7731 29.324 53.5691 29.34 53.3691 29.372C53.1771 29.396 52.9931 29.456 52.8171 29.552C52.6491 29.64 52.4931 29.768 52.3491 29.936C52.2131 30.104 52.1011 30.332 52.0131 30.62V35H50.9811V28.52H52.0131V29.444C52.1091 29.236 52.2331 29.064 52.3851 28.928C52.5451 28.792 52.7171 28.688 52.9011 28.616C53.0851 28.536 53.2771 28.48 53.4771 28.448C53.6851 28.416 53.8891 28.4 54.0891 28.4ZM60.319 35.072C60.039 35.072 59.839 35.028 59.719 34.94C59.607 34.852 59.551 34.64 59.551 34.304C59.551 33.984 59.607 33.78 59.719 33.692C59.839 33.604 60.039 33.56 60.319 33.56C60.591 33.56 60.787 33.604 60.907 33.692C61.027 33.78 61.087 33.984 61.087 34.304C61.087 34.64 61.027 34.852 60.907 34.94C60.787 35.028 60.591 35.072 60.319 35.072ZM66.5557 35.12C66.0757 35.12 65.6477 35.068 65.2717 34.964C64.9037 34.852 64.5917 34.668 64.3357 34.412C64.0797 34.148 63.8837 33.804 63.7477 33.38C63.6197 32.948 63.5557 32.408 63.5557 31.76C63.5557 31.112 63.6197 30.576 63.7477 30.152C63.8837 29.72 64.0797 29.376 64.3357 29.12C64.5917 28.856 64.9037 28.672 65.2717 28.568C65.6477 28.456 66.0757 28.4 66.5557 28.4C66.9157 28.4 67.2397 28.424 67.5277 28.472C67.8237 28.52 68.0637 28.576 68.2477 28.64V29.588C68.0077 29.5 67.7517 29.432 67.4797 29.384C67.2077 29.328 66.9037 29.3 66.5677 29.3C66.2077 29.3 65.9077 29.34 65.6677 29.42C65.4277 29.5 65.2317 29.636 65.0797 29.828C64.9277 30.012 64.8197 30.264 64.7557 30.584C64.6917 30.896 64.6597 31.292 64.6597 31.772C64.6597 32.244 64.6917 32.636 64.7557 32.948C64.8197 33.26 64.9277 33.512 65.0797 33.704C65.2317 33.888 65.4277 34.02 65.6677 34.1C65.9157 34.172 66.2197 34.208 66.5797 34.208C66.8837 34.208 67.1837 34.188 67.4797 34.148C67.7757 34.1 68.0397 34.028 68.2717 33.932V34.88C68.1837 34.912 68.0717 34.944 67.9357 34.976C67.8077 35 67.6637 35.024 67.5037 35.048C67.3517 35.072 67.1917 35.088 67.0237 35.096C66.8637 35.112 66.7077 35.12 66.5557 35.12ZM74.2125 28.4C74.6365 28.4 74.9885 28.452 75.2685 28.556C75.5485 28.66 75.7685 28.808 75.9285 29C76.0965 29.184 76.2125 29.404 76.2765 29.66C76.3485 29.916 76.3845 30.2 76.3845 30.512V35H75.3405V30.896C75.3405 30.648 75.3245 30.428 75.2925 30.236C75.2605 30.036 75.1965 29.872 75.1005 29.744C75.0125 29.608 74.8885 29.504 74.7285 29.432C74.5685 29.36 74.3605 29.324 74.1045 29.324C73.8965 29.324 73.6925 29.34 73.4925 29.372C73.3005 29.396 73.1165 29.456 72.9405 29.552C72.7725 29.64 72.6165 29.768 72.4725 29.936C72.3365 30.104 72.2245 30.332 72.1365 30.62V35H71.1045V28.52H72.1365V29.444C72.2325 29.236 72.3565 29.064 72.5085 28.928C72.6685 28.792 72.8405 28.688 73.0245 28.616C73.2085 28.536 73.4005 28.48 73.6005 28.448C73.8085 28.416 74.0125 28.4 74.2125 28.4Z" fill="#5D6C89"/>
</svg>
