<?xml version="1.0" encoding="UTF-8"?>
<svg width="120px" height="120px" viewBox="0 0 120 120" version="1.1" xmlns="http://www.w3.org/2000/svg" xmlns:xlink="http://www.w3.org/1999/xlink">
    <title>logo</title>
    <defs>
        <radialGradient cx="50%" cy="0.0655594406%" fx="50%" fy="0.0655594406%" r="163.457063%" id="radialGradient-1">
            <stop stop-color="#FFF927" offset="0%"></stop>
            <stop stop-color="#FF6C35" offset="91.7668269%"></stop>
            <stop stop-color="#FF7236" offset="99.9344406%"></stop>
        </radialGradient>
    </defs>
    <g id="页面-1" stroke="none" stroke-width="1" fill="none" fill-rule="evenodd">
        <g id="logo">
            <path d="M25.638852,1.81366828e-15 L94.361148,1.81366828e-15 C103.276335,-1.0537935e-15 106.509198,0.928256112 109.768457,2.67132704 C113.027716,4.41439796 115.585602,6.97228371 117.328673,10.231543 C119.071744,13.4908022 120,16.7236646 120,25.638852 L120,94.361148 C120,103.276335 119.071744,106.509198 117.328673,109.768457 C115.585602,113.027716 113.027716,115.585602 109.768457,117.328673 C106.509198,119.071744 103.276335,120 94.361148,120 L25.638852,120 C16.7236646,120 13.4908022,119.071744 10.231543,117.328673 C6.97228371,115.585602 4.41439796,113.027716 2.67132704,109.768457 C0.928256112,106.509198 -1.0537935e-15,103.276335 1.81366828e-15,94.361148 L0,25.638852 C0,16.7236646 0.928256112,13.4908022 2.67132704,10.231543 C4.41439796,6.97228371 6.97228371,4.41439796 10.231543,2.67132704 C13.4908022,0.928256112 16.7236646,-1.0537935e-15 25.638852,1.81366828e-15 Z" id="矩形" fill="url(#radialGradient-1)"></path>
            <g id="酷" transform="translate(7.368421, 8.991580)" fill-rule="nonzero">
                <path d="M1.99404955,51.0074946 C1.99404955,68.5193607 11.3352563,84.7013354 26.5008436,93.4575 C41.6664309,102.213665 60.3514365,102.213665 75.5170239,93.4575 C90.6826112,84.7013354 100.023818,68.5193607 100.023818,51.0074946 C100.023818,33.4956284 90.6826112,17.3136537 75.5170239,8.55748907 C60.3514365,-0.198675516 41.6664309,-0.198675516 26.5008436,8.55748907 C11.3352563,17.3136537 1.99404955,33.4956284 1.99404955,51.0074946 Z" id="路径" fill="#FFDB6C"></path>
                <path d="M61.5122847,92.7873446 C34.4422248,92.7873446 12.4976061,70.8427258 12.4976061,43.772666 C12.4976061,29.3102047 18.762651,16.3125956 28.7254972,7.34091468 C12.8571888,15.4542434 1.99404955,31.9627694 1.99404955,51.0085225 C1.99404955,78.0785824 23.9386683,100.023201 51.0087281,100.023201 C63.6163267,100.023201 75.1106374,95.2614546 83.7955156,87.440685 C77.1100324,90.8586738 69.5365916,92.7873447 61.5122847,92.7873446 L61.5122847,92.7873446 Z" id="路径" fill="#FFB04C"></path>
                <path d="M29.9448712,51.7112404 C26.3048417,51.7112404 23.3537552,54.6621212 23.3537552,58.3019452 L36.535576,58.3019452 C36.5359872,54.6619157 33.5851064,51.7112404 29.9448712,51.7112404 Z M87.4349285,51.7112404 C83.794899,51.7112404 80.8438125,54.6621212 80.8438125,58.3019452 L94.0256331,58.3019452 C94.0256331,54.6619157 91.0747524,51.7112404 87.4349285,51.7112404 Z" id="形状" fill="#F9A880"></path>
                <path d="M22.7961862,24.4818457 C35.5943697,21.5445341 45.9548334,22.5554364 57.4312576,25.2299998 C59.133159,25.6263837 60.9308669,26.0686149 62.8297267,26.1265922 C65.9917517,26.2234267 69.5462545,25.4364155 72.6108284,24.6664685 C84.7099948,21.6271827 94.1615303,23.2079896 103.26952,25.1541358 L102.596613,30.5365687 C101.174729,30.5680245 100.727564,31.2310629 100.321311,32.5252727 C98.1954767,39.2985443 100.005931,50.952601 84.2895564,49.5823218 C73.9502689,48.6807951 70.989314,45.8479249 66.0616536,33.3926709 C65.6424488,32.3332487 65.3698321,30.582416 62.9754924,30.6471778 C61.6235108,30.6835678 60.4144165,30.9226729 59.9927447,33.2715765 C59.2067614,37.6482468 53.230164,49.5399695 41.0956355,49.5268116 C30.377645,49.5152983 26.2890109,43.9519434 25.8009325,31.693031 C25.7402825,30.1710237 24.414,29.8819596 23.6181482,29.864073 L22.7961862,24.4818457 L22.7961862,24.4818457 Z" id="路径" fill="#56586F"></path>
                <path d="M41.382027,22.7877568 L33.897197,48.3131942 C35.8669864,49.123643 38.2446731,49.5237276 41.0958411,49.526606 C41.1460059,49.526606 41.1955539,49.5247557 41.2457186,49.52455 L48.8608948,23.5546199 C46.3703375,23.177973 43.8906766,22.9144023 41.382027,22.7877568 L41.382027,22.7877568 Z M87.92753,22.9945837 C85.4365615,22.9148134 82.8508145,22.9945837 80.1349268,23.2978338 L73.4529386,46.0851795 C75.280252,47.6197279 77.4375426,48.5109749 80.2856266,49.0553861 L87.92753,22.9945837 Z" id="形状" fill="#737891"></path>
                <path d="M57.3750637,86.9168333 C43.3646247,86.9168333 32.0066427,78.0339688 32.0066427,67.0766677 L82.7434848,67.0766677 C82.7434848,78.0339688 71.3857655,86.9168333 57.3750637,86.9168333 Z" id="路径" fill="#7F184C"></path>
                <path d="M41.7987906,67.0762565 L41.7987906,70.1802912 C41.7987906,71.4891619 42.9948896,72.5499407 44.4702099,72.5499407 L73.0221081,72.5499407 C74.4976608,72.5499407 75.6935274,71.4889559 75.6935274,70.1802912 L75.6935274,67.0762565 L41.7987906,67.0762565 Z" id="路径" fill="#F2F2F2"></path>
                <path d="M62.1003575,78.6854939 C55.5730061,76.193703 48.329763,76.5559585 42.4559975,79.1400608 C46.8697042,83.8666509 53.8104261,86.9166348 61.6214283,86.9166348 C64.9522585,86.9189491 68.2473825,86.3529254 71.2981028,85.2544057 C69.124154,82.4906148 66.0068595,80.1768678 62.1003575,78.6854939 L62.1003575,78.6854939 Z" id="路径" fill="#FC4C59"></path>
                <path d="M103.686052,23.2040833 C94.1637918,21.1697375 84.5851995,19.6027053 72.1246002,22.7326578 C69.0219916,23.5122676 65.7518244,24.2205366 62.8903767,24.1337762 C61.2916832,24.084845 59.698335,23.7127211 58.1574131,23.3523161 L57.8835628,23.2881709 C47.8849434,20.9577708 36.6597542,19.2542246 22.3498431,22.5383721 C21.3323139,22.7719379 20.667185,23.7508016 20.824752,24.7828343 L21.6471252,30.1652672 C21.7933166,31.1222012 22.6057399,31.8358678 23.5735345,31.8575057 C23.6711914,31.8595616 23.7513727,31.8694301 23.8128451,31.881149 C24.0955359,38.6665506 25.4510125,43.305558 28.0764391,46.4745733 C30.884227,49.8635734 35.1420645,51.5142821 41.093374,51.5204498 L41.1157837,51.5204498 C48.433672,51.5204498 53.4086189,47.6306244 56.294121,44.3653914 C59.5299541,40.7039802 61.4691102,36.3320384 61.9555439,33.6233466 C62.0828061,32.9148721 62.2594108,32.7390898 62.2602332,32.7382675 C62.2892219,32.7193529 62.4308757,32.6560301 63.0301802,32.6399938 C63.651072,32.623752 63.6738929,32.6233408 64.0275134,33.6315704 C64.0883689,33.8050912 64.1471687,33.9716217 64.2082299,34.1256111 C66.6130548,40.2041829 68.7242925,44.5286326 71.8149767,47.3033199 C75.0832935,50.2377532 79.0966805,51.1304394 84.116858,51.5681475 C85.0216742,51.6470954 85.8878388,51.6867749 86.7159686,51.6867749 C91.7009896,51.6867749 95.3068907,50.2527615 97.6936235,47.3345701 C97.7542734,47.2603509 97.8089613,47.183459 97.8671441,47.1084175 C97.9734359,48.4034497 98.0293572,49.7048554 98.0293573,51.0083169 C98.0293573,76.9356892 76.9358949,98.028946 51.0087281,98.028946 C25.0815613,98.028946 3.9878934,76.9358948 3.9878934,51.0085225 C3.9878934,25.0811502 25.0811503,3.9878934 51.0083169,3.9878934 C61.3969469,3.9878934 71.2434272,7.30719737 79.483196,13.587045 C80.3590235,14.2546065 81.61047,14.0856088 82.2776203,13.2097813 C82.9451817,12.3337481 82.7763896,11.0825073 81.9003565,10.4149458 C72.9601314,3.60158357 62.2777087,0 51.0081113,0 C22.8823298,0 0,22.8823298 0,51.0085225 C0,79.1347153 22.8823298,102.017251 51.0083169,102.017251 C79.1347153,102.017251 102.017045,79.1349209 102.017045,51.0085225 C102.017045,47.2893395 101.60997,43.5847537 100.816175,39.9833757 C101.013133,39.0584114 101.175963,38.1398205 101.331597,37.2526853 C101.597224,35.7436304 101.847842,34.3180465 102.223255,33.1225214 C102.324818,32.7995343 102.397598,32.6299198 102.441184,32.5439818 C102.486415,32.537814 102.551588,32.5318518 102.640404,32.5297958 C103.628983,32.5079616 104.452209,31.7648795 104.574832,30.7836918 L105.247533,25.4012589 C105.376322,24.3745678 104.697993,23.4200843 103.686052,23.2040833 L103.686052,23.2040833 Z M100.79212,28.8949061 C99.1508687,29.5959793 98.6597063,31.1603388 98.4185454,31.9282297 C97.9658289,33.3717003 97.6930067,34.9212572 97.4045592,36.5620975 C97.2727738,37.3114851 97.1422221,38.0483315 96.9985124,38.7648241 C96.7929239,39.1216321 96.7033322,39.5335238 96.7421375,39.9434905 C95.5914317,44.7909696 93.3259991,48.3687044 84.4626659,47.5960847 C75.0927508,46.7790568 72.6184353,44.5454912 67.915694,32.6593196 C67.8731362,32.5515887 67.8328398,32.4352229 67.7904877,32.3139228 C67.4035611,31.2100923 66.507791,28.6518947 63.1099503,28.6518948 C63.0482723,28.6518948 62.9853608,28.6527172 62.9220381,28.6545675 C61.7877798,28.685201 58.7756323,28.7662047 58.0303565,32.9196007 C57.3574496,36.6671556 51.8882564,47.5333788 41.1151669,47.5333788 L41.0978971,47.5333788 C31.8610008,47.5233047 28.2550998,43.2087235 27.7935428,31.6144944 C27.7298088,30.0049044 26.8128627,28.7649712 25.3815221,28.201851 L25.0505169,26.0355144 C37.7216437,23.4707379 47.8754861,25.0513392 56.9787467,27.1726509 L57.2501298,27.2359737 C58.9008385,27.6220779 60.7719433,28.0593749 62.7686655,28.1204361 C66.1243595,28.2222048 69.7146355,27.4508187 73.0966455,26.6011016 C83.9604015,23.8720559 92.6002548,24.994801 101.063298,26.7295973 L100.79212,28.8949061 L100.79212,28.8949061 Z" id="形状" fill="#000000"></path>
                <path d="M83.1578947,67.1044862 C83.1578947,66.0051211 82.112347,65.1136829 80.8218507,65.1136829 L34.3360441,65.1136829 C33.7164671,65.1136829 33.122248,65.3233557 32.6841409,65.6967156 C32.2460338,66.0700754 32,66.5764757 32,67.1044862 C32,79.1244308 43.4745306,88.9031566 57.5789473,88.9031566 C71.683364,88.9031566 83.1578947,79.1244308 83.1578947,67.1044862 L83.1578947,67.1044862 Z M36.6315789,69.1136829 L78.3157895,69.1136829 C77.1473916,77.9840886 68.2459689,84.9031566 57.4738051,84.9031566 C46.7016412,84.9031566 37.7999768,77.9840885 36.6315789,69.1136829 Z" id="形状" fill="#000000"></path>
                <path d="M83.5985572,16.2881299 C83.5983955,17.000643 83.9784238,17.6591015 84.5954513,18.0154048 C85.2124788,18.371708 85.9727347,18.371708 86.5897622,18.0154048 C87.2067897,17.6591015 87.586818,17.000643 87.5866563,16.2881299 C87.586818,15.5756168 87.2067897,14.9171583 86.5897622,14.5608551 C85.9727347,14.2045518 85.2124788,14.2045518 84.5954513,14.5608551 C83.9784238,14.9171583 83.5983955,15.5756168 83.5985572,16.2881299 L83.5985572,16.2881299 Z" id="路径" fill="#000000"></path>
                <g id="美金" transform="translate(32.421053, 24.692630)" fill="#FFB04C">
                    <path d="M15.9157895,15.0324632 C15.9157895,13.4181474 15.42239,12.6678316 14.6106684,12.0823579 C14.2241342,11.8015579 13.7295979,11.5207579 12.742799,11.052379 C11.6491349,10.5373895 10.5566075,10.0690105 9.4277005,9.57675789 C7.91225935,8.94467367 6.71286671,8.45355788 6.39568135,8.00791578 C6.2899529,7.84421052 6.21946727,7.5872842 6.21946727,7.16551578 C6.21946727,6.39246316 6.18536132,5.52618948 7.7712881,5.52618948 C8.51138726,5.52618948 9.35721487,5.59667368 9.53342895,6.18214738 C9.60505145,6.41633685 9.60505145,6.48568422 9.60505145,6.86084212 L9.60505145,8.07840001 L15.3166616,8.07840001 C15.3507675,6.8142316 15.4928756,5.0112 14.2229974,3.95734737 C13.0599844,2.95010526 11.1204926,2.83301054 9.39245767,2.73978948 L9.39245767,0 L6.46616698,0 L6.46616698,2.73978948 C4.73813208,2.83301054 2.87026275,3.02058949 1.6708701,3.98122106 C0.472614309,4.91684212 0.331643058,6.18214738 0.331643058,7.35309473 C0.331643058,9.03903158 0.82504249,9.76433683 1.6708701,10.3736842 C2.41210614,10.9114105 3.61036191,11.4502737 3.82181884,11.5446316 C4.8449974,12.0130105 5.86703909,12.5041263 6.92546048,12.9725053 C8.40565881,13.6512 9.3924577,14.0490947 9.7107799,14.5879579 C9.88699398,14.8926316 9.88699398,15.3610105 9.88699398,15.4314947 C9.88699398,16.0169684 9.99272243,16.8832421 7.87701655,16.8832421 C6.64238108,16.8832421 6.21946727,16.5080842 6.078496,16.1329263 C5.93752472,15.8293895 5.97276755,15.4781053 5.97276755,15.3837474 L5.97276755,14.2128 L0.0144577027,14.2128 C-0.0560279229,16.6013053 0.0849433282,17.6790316 1.49465603,18.5919158 C2.83501995,19.4354526 4.52781205,19.5752842 5.12693993,19.6230316 C5.54985374,19.6685053 6.00801037,19.7162526 6.46616698,19.7389895 L6.46616698,22.7368421 L9.39245767,22.7368421 L9.39245767,19.7401263 C11.1909782,19.5991579 12.8132847,19.4354526 14.1877545,18.5919158 C15.7395754,17.6551579 15.9157895,16.3443789 15.9157895,15.0336 L15.9157895,15.0324632 Z" id="路径"></path>
                </g>
                <g id="美金备份" transform="translate(78.315789, 24.903157)" fill="#FFB04C">
                    <path d="M15.9157895,15.0324632 C15.9157895,13.4181474 15.42239,12.6678316 14.6106684,12.0823579 C14.2241342,11.8015579 13.7295979,11.5207579 12.742799,11.052379 C11.6491349,10.5373895 10.5566075,10.0690105 9.4277005,9.57675789 C7.91225935,8.94467367 6.71286671,8.45355788 6.39568135,8.00791578 C6.2899529,7.84421052 6.21946727,7.5872842 6.21946727,7.16551578 C6.21946727,6.39246316 6.18536132,5.52618948 7.7712881,5.52618948 C8.51138726,5.52618948 9.35721487,5.59667368 9.53342895,6.18214738 C9.60505145,6.41633685 9.60505145,6.48568422 9.60505145,6.86084212 L9.60505145,8.07840001 L15.3166616,8.07840001 C15.3507675,6.8142316 15.4928756,5.0112 14.2229974,3.95734737 C13.0599844,2.95010526 11.1204926,2.83301054 9.39245767,2.73978948 L9.39245767,0 L6.46616698,0 L6.46616698,2.73978948 C4.73813208,2.83301054 2.87026275,3.02058949 1.6708701,3.98122106 C0.472614309,4.91684212 0.331643058,6.18214738 0.331643058,7.35309473 C0.331643058,9.03903158 0.82504249,9.76433683 1.6708701,10.3736842 C2.41210614,10.9114105 3.61036191,11.4502737 3.82181884,11.5446316 C4.8449974,12.0130105 5.86703909,12.5041263 6.92546048,12.9725053 C8.40565881,13.6512 9.3924577,14.0490947 9.7107799,14.5879579 C9.88699398,14.8926316 9.88699398,15.3610105 9.88699398,15.4314947 C9.88699398,16.0169684 9.99272243,16.8832421 7.87701655,16.8832421 C6.64238108,16.8832421 6.21946727,16.5080842 6.078496,16.1329263 C5.93752472,15.8293895 5.97276755,15.4781053 5.97276755,15.3837474 L5.97276755,14.2128 L0.0144577027,14.2128 C-0.0560279229,16.6013053 0.0849433282,17.6790316 1.49465603,18.5919158 C2.83501995,19.4354526 4.52781205,19.5752842 5.12693993,19.6230316 C5.54985374,19.6685053 6.00801037,19.7162526 6.46616698,19.7389895 L6.46616698,22.7368421 L9.39245767,22.7368421 L9.39245767,19.7401263 C11.1909782,19.5991579 12.8132847,19.4354526 14.1877545,18.5919158 C15.7395754,17.6551579 15.9157895,16.3443789 15.9157895,15.0336 L15.9157895,15.0324632 Z" id="路径"></path>
                </g>
            </g>
        </g>
    </g>
</svg>