<svg width="42" height="22" viewBox="0 0 42 22" fill="none" xmlns="http://www.w3.org/2000/svg">
<g id="Group 1410150917">
<path id="Rectangle 5675" d="M42 11C42 4.92487 37.0751 0 31 0H10C4.47715 0 0 4.47715 0 10V21C0 21.5523 0.447715 22 1 22H31C37.0751 22 42 17.0751 42 11V11Z" fill="url(#paint0_linear_3145_468)"/>
<path id="&#233;&#153;&#144;&#230;&#151;&#182;" d="M12.888 6.575L11.952 9.669C12.2727 10.189 12.5153 10.7133 12.68 11.242C12.8447 11.7707 12.927 12.269 12.927 12.737C12.927 13.4563 12.7927 13.9633 12.524 14.258C12.264 14.544 11.8133 14.687 11.172 14.687H10.665L10.405 13.569H10.821C11.0983 13.569 11.3063 13.543 11.445 13.491C11.5837 13.4303 11.6833 13.3263 11.744 13.179C11.8047 13.0317 11.835 12.8107 11.835 12.516C11.835 12.1607 11.7527 11.749 11.588 11.281C11.4233 10.813 11.1807 10.345 10.86 9.877L11.731 6.601H10.314V16.871H9.196V5.509H12.888V6.575ZM18.023 13.985C18.595 14.6003 19.3967 15.1333 20.428 15.584L19.726 16.611C18.9287 16.195 18.27 15.753 17.75 15.285C17.23 14.8083 16.7967 14.2623 16.45 13.647C16.1033 13.023 15.813 12.2733 15.579 11.398H14.695V15.337L16.554 14.44L16.723 15.597L13.668 16.988L13.148 15.922C13.33 15.8353 13.4427 15.753 13.486 15.675C13.538 15.597 13.564 15.4757 13.564 15.311V5.6H19.414V11.398H16.645C16.879 12.1173 17.1303 12.698 17.399 13.14C18.1183 12.672 18.7597 12.1737 19.323 11.645L19.999 12.49C19.193 13.1313 18.5343 13.6297 18.023 13.985ZM18.296 8.044V6.653H14.695V8.044H18.296ZM18.296 9.058H14.695V10.345H18.296V9.058ZM33.298 7.511V8.772H31.959V14.999C31.959 15.467 31.9027 15.8223 31.79 16.065C31.6773 16.3163 31.478 16.494 31.192 16.598C30.906 16.7107 30.4987 16.767 29.97 16.767H28.332L28.085 15.467H29.619C29.9483 15.467 30.1867 15.4453 30.334 15.402C30.49 15.3587 30.5897 15.2807 30.633 15.168C30.685 15.0553 30.711 14.869 30.711 14.609V8.772H26.915V7.511H30.711V5.015H31.959V7.511H33.298ZM23.418 16.403H22.235V5.886H26.421V15.454H23.418V16.403ZM25.251 10.072V7.121H23.418V10.072H25.251ZM28.813 13.153C28.5877 12.7197 28.306 12.1953 27.968 11.58C27.6387 10.956 27.37 10.4707 27.162 10.124L28.163 9.565C28.423 9.99833 28.7263 10.5183 29.073 11.125C29.4197 11.7317 29.684 12.217 29.866 12.581L28.813 13.153ZM23.418 11.242V14.219H25.251V11.242H23.418Z" fill="white"/>
</g>
<defs>
<linearGradient id="paint0_linear_3145_468" x1="8.5" y1="-1.5" x2="21" y2="22" gradientUnits="userSpaceOnUse">
<stop stop-color="#00E9CD"/>
<stop offset="1" stop-color="#00CA69"/>
</linearGradient>
</defs>
</svg>
