<svg width="16" height="16" viewBox="0 0 16 16" fill="none" xmlns="http://www.w3.org/2000/svg">
<g id="Vector">
<path id="Vector_2" d="M12.7062 9.79212C13.5071 10.101 14.3334 10.3394 15.1758 10.5047V3.24712C15.1765 2.95278 15.1193 2.66117 15.0073 2.38895C14.8953 2.11673 14.7309 1.86922 14.5232 1.66057C14.3156 1.45192 14.069 1.2862 13.7973 1.17288C13.5256 1.05956 13.2343 1.00086 12.94 1.00012H3.41999C3.12503 1.00031 2.833 1.0586 2.56058 1.17166C2.28815 1.28473 2.04067 1.45035 1.83227 1.65908C1.62387 1.86781 1.45863 2.11555 1.34599 2.38815C1.23335 2.66075 1.17551 2.95287 1.17579 3.24782V12.7531C1.17505 13.0475 1.2323 13.3391 1.34426 13.6113C1.45622 13.8835 1.6207 14.131 1.82832 14.3397C2.03593 14.5483 2.28261 14.714 2.55427 14.8274C2.82592 14.9407 3.11724 14.9994 3.41159 15.0001H12.9316C13.2265 14.9999 13.5186 14.9416 13.791 14.8286C14.0634 14.7155 14.3109 14.5499 14.5193 14.3412C14.7277 14.1324 14.8929 13.8847 15.0056 13.6121C15.1182 13.3395 15.1761 13.0474 15.1758 12.7524V12.6754C15.1758 12.6754 11.5421 11.162 9.70178 10.2709C8.46908 11.7689 6.87518 12.6761 5.22598 12.6761C2.43369 12.6761 1.49009 10.2373 2.81239 8.62592C3.21915 8.18308 3.7594 7.88518 4.35099 7.77752C5.54098 7.48492 7.43658 7.95952 9.20898 8.54542C9.53938 7.93222 9.80328 7.28542 9.99508 6.61552H4.52879V6.05972H7.34628V5.07552H3.92119V4.52462H7.34278V3.09942C7.34216 3.06728 7.34817 3.03535 7.36044 3.00563C7.37271 2.97592 7.39098 2.94905 7.41411 2.92672C7.43723 2.90438 7.46472 2.88705 7.49484 2.87582C7.52496 2.86458 7.55708 2.85968 7.58918 2.86142H8.97028V4.52462H12.3492V5.07552H8.97028V6.06812H11.7283C11.4846 7.10239 11.091 8.09546 10.56 9.01582C11.4105 9.32102 12.1413 9.60102 12.6852 9.79632L12.7062 9.79212ZM4.41539 8.24652C3.94639 8.28852 3.49699 8.45652 3.11479 8.73162C2.09279 9.62412 2.71089 11.2558 4.76679 11.2558C5.97848 11.2558 7.16638 10.4802 8.11558 9.25662C6.78208 8.59022 5.64318 8.12962 4.41539 8.24652Z" fill="#3379F6"/>
</g>
</svg>
