<svg width="16" height="16" viewBox="0 0 16 16" fill="none" xmlns="http://www.w3.org/2000/svg">
<g id="Vector">
<path id="Subtract" fill-rule="evenodd" clip-rule="evenodd" d="M15.1758 3.23694C15.1752 2.94605 15.118 2.65803 15.0073 2.38895C14.8953 2.11673 14.7309 1.86922 14.5232 1.66057C14.3156 1.45192 14.069 1.2862 13.7973 1.17288C13.5256 1.05956 13.2343 1.00086 12.94 1.00012H3.41999C3.12503 1.00031 2.833 1.0586 2.56058 1.17166C2.28815 1.28473 2.04067 1.45035 1.83227 1.65908C1.62387 1.86781 1.45863 2.11555 1.34599 2.38815C1.23335 2.66075 1.17551 2.95287 1.17579 3.24782V12.7531C1.17505 13.0475 1.2323 13.3391 1.34426 13.6113C1.45622 13.8835 1.6207 14.131 1.82832 14.3397C2.03593 14.5483 2.28261 14.714 2.55427 14.8274C2.82592 14.9407 3.11724 14.9994 3.41159 15.0001H12.9316C13.2265 14.9999 13.5186 14.9416 13.791 14.8286C14.0634 14.7155 14.3109 14.5499 14.5193 14.3412C14.7277 14.1324 14.8929 13.8847 15.0056 13.6121C15.1182 13.3395 15.176 13.0474 15.1758 12.7524L15.1758 3.23694ZM6.69045 9.2933L13.1416 5.53926C13.5491 6.19027 13.7684 6.94139 13.7752 7.70938C13.7752 10.3118 11.2587 12.4138 8.16779 12.4138C7.5485 12.4161 6.93216 12.3283 6.33813 12.1532C6.2829 12.1388 6.22637 12.1299 6.16938 12.1266C6.06468 12.1326 5.96304 12.1641 5.87332 12.2184L4.65355 12.9378C4.62544 12.9638 4.58819 12.9776 4.54992 12.9763C4.52585 12.9771 4.50187 12.973 4.47943 12.9642C4.45699 12.9555 4.43656 12.9423 4.41939 12.9254C4.40222 12.9085 4.38867 12.8883 4.37955 12.866C4.37044 12.8437 4.36595 12.8198 4.36637 12.7957C4.36812 12.7463 4.3771 12.6974 4.39301 12.6506C4.39301 12.6355 4.44331 12.4449 4.50307 12.2184C4.54886 12.0448 4.60021 11.8502 4.63874 11.6973C4.6543 11.6596 4.66331 11.6196 4.66539 11.5789C4.66324 11.5209 4.64801 11.4642 4.62084 11.4129C4.59367 11.3616 4.55526 11.3172 4.50848 11.2828C3.92797 10.886 3.45 10.357 3.11389 9.73934C2.77779 9.12169 2.59316 8.43305 2.5752 7.73011C2.5752 5.1307 5.09468 3.02571 8.1826 3.02571C9.04751 3.0053 9.90656 3.17289 10.7004 3.5169C11.4942 3.86091 12.2039 4.37313 12.7804 5.0182L7.11974 7.55247C7.05897 7.57889 6.99356 7.59298 6.9273 7.59392C6.81657 7.59064 6.70852 7.55904 6.61347 7.50214L5.40554 6.65245C5.37008 6.62954 5.32927 6.61628 5.28712 6.61396C5.26303 6.61355 5.23912 6.61803 5.21683 6.62715C5.19453 6.63626 5.17432 6.64982 5.15743 6.66699C5.14054 6.68416 5.12732 6.70458 5.11856 6.72702C5.10981 6.74946 5.10571 6.77344 5.10652 6.79752C5.10059 6.82283 5.10059 6.84918 5.10652 6.87449L6.13385 9.10975L6.15754 9.16304C6.18935 9.22179 6.23635 9.27091 6.29364 9.30528C6.35093 9.33966 6.4164 9.35801 6.4832 9.35844C6.54162 9.35828 6.59926 9.34514 6.65196 9.31995L6.69045 9.2933Z" fill="#22AC38"/>
</g>
</svg>
