<svg width="17" height="16" viewBox="0 0 17 16" fill="none" xmlns="http://www.w3.org/2000/svg">
<g id="Vector">
<path id="Vector_2" d="M12.7062 9.792C13.5071 10.1009 14.3334 10.3393 15.1758 10.5046V3.247C15.1765 2.95265 15.1193 2.66105 15.0073 2.38883C14.8953 2.1166 14.7309 1.8691 14.5232 1.66045C14.3156 1.4518 14.069 1.28608 13.7973 1.17276C13.5256 1.05944 13.2343 1.00073 12.94 1H3.41999C3.12503 1.00018 2.833 1.05847 2.56058 1.17154C2.28815 1.2846 2.04067 1.45023 1.83227 1.65896C1.62387 1.86769 1.45863 2.11542 1.34599 2.38802C1.23335 2.66062 1.17551 2.95274 1.17579 3.2477V12.753C1.17505 13.0473 1.2323 13.339 1.34426 13.6112C1.45622 13.8834 1.6207 14.1309 1.82832 14.3396C2.03593 14.5482 2.28261 14.7139 2.55427 14.8272C2.82592 14.9406 3.11724 14.9993 3.41159 15H12.9316C13.2265 14.9998 13.5186 14.9415 13.791 14.8285C14.0634 14.7154 14.3109 14.5498 14.5193 14.341C14.7277 14.1323 14.8929 13.8846 15.0056 13.612C15.1182 13.3394 15.1761 13.0473 15.1758 12.7523V12.6753C15.1758 12.6753 11.5421 11.1619 9.70178 10.2708C8.46908 11.7688 6.87518 12.676 5.22598 12.676C2.43369 12.676 1.49009 10.2372 2.81239 8.6258C3.21915 8.18295 3.7594 7.88505 4.35099 7.7774C5.54098 7.4848 7.43658 7.9594 9.20898 8.5453C9.53938 7.9321 9.80328 7.2853 9.99508 6.6154H4.52879V6.0596H7.34628V5.0754H3.92119V4.5245H7.34278V3.0993C7.34216 3.06716 7.34817 3.03523 7.36044 3.00551C7.37271 2.9758 7.39098 2.94893 7.41411 2.92659C7.43723 2.90426 7.46472 2.88693 7.49484 2.8757C7.52496 2.86446 7.55708 2.85956 7.58918 2.8613H8.97028V4.5245H12.3492V5.0754H8.97028V6.068H11.7283C11.4846 7.10226 11.091 8.09534 10.56 9.0157C11.4105 9.3209 12.1413 9.6009 12.6852 9.7962L12.7062 9.792ZM4.41539 8.2464C3.94639 8.2884 3.49699 8.4564 3.11479 8.7315C2.09279 9.624 2.71089 11.2557 4.76679 11.2557C5.97848 11.2557 7.16638 10.4801 8.11558 9.2565C6.78208 8.5901 5.64318 8.1295 4.41539 8.2464Z" fill="#3379F6"/>
</g>
</svg>
