<svg width="16" height="16" viewBox="0 0 16 16" fill="none" xmlns="http://www.w3.org/2000/svg">
<g id="Vector">
<path id="Subtract" fill-rule="evenodd" clip-rule="evenodd" d="M15.1758 3.23682C15.1752 2.94593 15.118 2.65791 15.0073 2.38883C14.8953 2.11661 14.7309 1.8691 14.5232 1.66045C14.3156 1.4518 14.069 1.28608 13.7973 1.17276C13.5256 1.05944 13.2343 1.00073 12.94 1H3.41999C3.12503 1.00018 2.833 1.05847 2.56058 1.17154C2.28815 1.2846 2.04067 1.45023 1.83227 1.65896C1.62387 1.86769 1.45863 2.11542 1.34599 2.38802C1.23335 2.66062 1.17551 2.95274 1.17579 3.2477V12.753C1.17505 13.0473 1.2323 13.339 1.34426 13.6112C1.45622 13.8834 1.6207 14.1309 1.82832 14.3396C2.03593 14.5482 2.28261 14.7139 2.55427 14.8272C2.82592 14.9406 3.11724 14.9993 3.41159 15H12.9316C13.2265 14.9998 13.5186 14.9415 13.791 14.8285C14.0634 14.7154 14.3109 14.5498 14.5193 14.341C14.7277 14.1323 14.8929 13.8846 15.0056 13.612C15.1182 13.3394 15.176 13.0473 15.1758 12.7523L15.1758 3.23682ZM6.69045 9.29318L13.1416 5.53914C13.5491 6.19015 13.7684 6.94127 13.7752 7.70926C13.7752 10.3116 11.2587 12.4137 8.16779 12.4137C7.5485 12.416 6.93216 12.3282 6.33813 12.1531C6.2829 12.1387 6.22637 12.1298 6.16938 12.1265C6.06468 12.1324 5.96304 12.164 5.87332 12.2183L4.65355 12.9377C4.62544 12.9637 4.58819 12.9775 4.54992 12.9762C4.52585 12.977 4.50187 12.9729 4.47943 12.9641C4.45699 12.9554 4.43656 12.9422 4.41939 12.9253C4.40222 12.9084 4.38867 12.8882 4.37955 12.8659C4.37044 12.8436 4.36595 12.8197 4.36637 12.7956C4.36812 12.7462 4.3771 12.6973 4.39301 12.6505C4.39301 12.6354 4.44331 12.4448 4.50307 12.2183C4.54886 12.0447 4.60021 11.85 4.63874 11.6972C4.6543 11.6595 4.66331 11.6195 4.66539 11.5788C4.66324 11.5208 4.64801 11.464 4.62084 11.4128C4.59367 11.3615 4.55526 11.317 4.50848 11.2827C3.92797 10.8859 3.45 10.3569 3.11389 9.73922C2.77779 9.12157 2.59316 8.43293 2.5752 7.72998C2.5752 5.13058 5.09468 3.02559 8.1826 3.02559C9.04751 3.00518 9.90656 3.17277 10.7004 3.51678C11.4942 3.86078 12.2039 4.37301 12.7804 5.01807L7.11974 7.55235C7.05897 7.57877 6.99356 7.59286 6.9273 7.5938C6.81657 7.59052 6.70852 7.55892 6.61347 7.50202L5.40554 6.65233C5.37008 6.62942 5.32927 6.61615 5.28712 6.61384C5.26303 6.61342 5.23912 6.61791 5.21683 6.62703C5.19453 6.63614 5.17432 6.6497 5.15743 6.66687C5.14054 6.68403 5.12732 6.70446 5.11856 6.7269C5.10981 6.74934 5.10571 6.77332 5.10652 6.79739C5.10059 6.82271 5.10059 6.84905 5.10652 6.87437L6.13385 9.10962L6.15754 9.16292C6.18935 9.22166 6.23635 9.27079 6.29364 9.30516C6.35093 9.33953 6.4164 9.35789 6.4832 9.35831C6.54162 9.35816 6.59926 9.34501 6.65196 9.31983L6.69045 9.29318Z" fill="#22AC38"/>
</g>
</svg>
