<svg width="390" height="486" viewBox="0 0 390 486" fill="none" xmlns="http://www.w3.org/2000/svg">
<rect width="390" height="486" fill="#FF8F1F"/>
<mask id="mask0_409_3759" style="mask-type:alpha" maskUnits="userSpaceOnUse" x="0" y="0" width="390" height="486">
<rect width="390" height="486" fill="#D9D9D9"/>
</mask>
<g mask="url(#mask0_409_3759)">
<path opacity="0.5" d="M546.742 354.247C198.517 318.06 28.7316 105.13 -12.6328 3.18896H-194V308.03C81.6781 286.002 223.145 464.711 259.418 556.819H546.742V354.247Z" fill="url(#paint0_linear_409_3759)"/>
<path opacity="0.5" d="M466.502 643L564.823 467.568C362.535 317.492 282.164 136.393 257.594 5C247.669 -48.08 246.85 -93.0478 250.78 -124.581L93.7109 -218L-54.2465 45.9998C195.189 168.92 230.964 396.554 217.673 495.005L466.502 643Z" fill="url(#paint1_linear_409_3759)"/>
<path d="M78.36 81.392C78.184 82.72 77.984 83.872 77.76 84.848H85.368V86.336C84.984 88.4 84.504 90.44 83.928 92.456L81.696 91.832C82.224 90.424 82.656 88.824 82.992 87.032H77.16C76.568 88.84 75.832 90.304 74.952 91.424L73.128 90.104C74.68 87.912 75.672 84.888 76.104 81.032L78.36 81.392ZM72.168 99.704C71.528 98.712 70.768 97.584 69.888 96.32C68.544 98.992 66.912 101.096 64.992 102.632L63.864 100.592C65.784 99.152 67.344 97.112 68.544 94.472C67.136 92.616 65.712 90.888 64.272 89.288L65.784 87.824C66.84 88.88 68.072 90.288 69.48 92.048C70.056 90.272 70.512 88.288 70.848 86.096H64.272V83.888H73.08V86C72.552 88.944 71.84 91.6 70.944 93.968C71.92 95.28 72.88 96.632 73.824 98.024L72.168 99.704ZM80.544 88.472C80.544 90.088 80.448 91.592 80.256 92.984C81.408 96.584 83.384 99.488 86.184 101.696L84.648 103.496C82.44 101.544 80.736 99.192 79.536 96.44C79.52 96.44 79.512 96.456 79.512 96.488C78.68 99.304 76.688 101.64 73.536 103.496L72.096 101.72C74.768 100.12 76.504 98.192 77.304 95.936C77.944 94.016 78.28 91.528 78.312 88.472H80.544ZM90.144 81.536C91.76 82.816 93.12 84.08 94.224 85.328L92.64 86.888C91.648 85.656 90.312 84.36 88.632 83L90.144 81.536ZM104.544 103.04C103.712 103.04 102.224 103.024 100.08 102.992C98.432 102.96 97.104 102.816 96.096 102.56C95.072 102.272 94.192 101.712 93.456 100.88C93.136 100.464 92.816 100.256 92.496 100.256C91.968 100.256 91.064 101.4 89.784 103.688L88.176 102.176C89.392 100.176 90.504 98.912 91.512 98.384V91.544H88.2V89.48H93.6V98.528L94.008 98.936C94.632 99.576 95.24 100.064 95.832 100.4C96.616 100.752 97.736 100.952 99.192 101C101.08 101.032 102.768 101.048 104.256 101.048C104.944 101.048 106.056 101.032 107.592 101C109.16 100.936 110.032 100.896 110.208 100.88L109.704 103.04H104.544ZM95.064 96.608C95.48 96.416 95.688 96.072 95.688 95.576V83.504C97.656 82.88 99.216 82.16 100.368 81.344L101.568 83.072C100.56 83.776 99.288 84.408 97.752 84.968V95.816C98.968 95.464 100.112 95.104 101.184 94.736L101.544 96.728C99.928 97.256 97.952 97.832 95.616 98.456L95.064 96.608ZM105.408 97.616L104.808 95.552L106.488 95.624C106.968 95.624 107.208 95.352 107.208 94.808V84.632H104.304V100.28H102.264V82.664H109.248V95.24C109.248 96.824 108.552 97.616 107.16 97.616H105.408ZM119.208 83.576H125.232V81.32H127.512V83.576H133.968V85.76H127.512V87.656H133.056V94.784H127.416C127.224 96.784 126.856 98.336 126.312 99.44C128.6 100.608 131.216 101.264 134.16 101.408L133.608 103.592C130.344 103.368 127.48 102.568 125.016 101.192C123.736 102.408 121.72 103.208 118.968 103.592L117.984 101.528C120.24 101.336 121.912 100.792 123 99.896C121.72 98.936 120.536 97.792 119.448 96.464L121.2 95.264C122.128 96.416 123.16 97.392 124.296 98.192C124.696 97.232 124.968 96.096 125.112 94.784H119.88V87.656H125.232V85.76H119.208V83.576ZM130.92 92.744V89.672H127.512V92.744H130.92ZM125.232 92.744V89.672H122.016V92.744H125.232ZM114.504 90.896C113.864 91.712 113.176 92.52 112.44 93.32L111.696 90.872C114.048 88.088 115.776 84.84 116.88 81.128L119.04 82.136C118.48 83.928 117.736 85.672 116.808 87.368V103.52H114.504V90.896ZM140.424 90.032V93.704H145.944V90.032H140.424ZM140.304 95.816C140.016 98.84 139.128 101.336 137.64 103.304L135.888 101.744C137.328 99.68 138.072 97.064 138.12 93.896V82.136H156.528V100.208C156.528 102.016 155.608 102.92 153.768 102.92H151.008L150.408 100.688C151.448 100.768 152.32 100.808 153.024 100.808C153.808 100.808 154.2 100.336 154.2 99.392V95.816H148.248V102.656H145.944V95.816H140.304ZM154.2 93.704V90.032H148.248V93.704H154.2ZM154.2 87.944V84.344H148.248V87.944H154.2ZM145.944 84.344H140.424V87.944H145.944V84.344ZM160.128 91.064H181.848V93.32H160.128V91.064ZM185.328 90.32L183.744 89.312C184.816 86.8 185.576 84.104 186.024 81.224L188.184 81.68C188.136 81.968 188.064 82.336 187.968 82.784L187.728 83.84H191.016V86.024H187.176C186.904 86.92 186.592 87.824 186.24 88.736H191.016V90.752H189.096V93.224H191.376V94.04L192.864 93.488C193.104 94.672 193.456 95.72 193.92 96.632C194.288 95.144 194.52 93.552 194.616 91.856H191.832V90.296C192.744 88.712 193.56 87.064 194.28 85.352H191.808V83.432H196.296V85.28C195.608 87.04 194.896 88.624 194.16 90.032H196.44V91.232C196.392 94.128 196.024 96.632 195.336 98.744C195.864 99.336 196.488 99.808 197.208 100.16C198.296 100.656 199.944 100.952 202.152 101.048C203.4 101.048 204.72 101.008 206.112 100.928L205.704 103.088H203.256C199.592 103.04 197.104 102.608 195.792 101.792C195.296 101.472 194.864 101.128 194.496 100.76C193.952 101.784 193.36 102.648 192.72 103.352L191.184 101.84C191.92 101.088 192.56 100.136 193.104 98.984C192.384 97.832 191.808 96.456 191.376 94.856V95.288H189.096V100.136C189.768 99.768 190.456 99.28 191.16 98.672L191.52 100.592C190.272 101.504 188.832 102.272 187.2 102.896L186.288 101C186.784 100.808 187.032 100.504 187.032 100.088V95.288H184.512V93.224H187.032V90.752H185.328V90.32ZM204.816 91.688H201.48V93.152H204.984V94.904H201.48V96.44H205.584V98.288H201.48V100.256H199.44V98.288H196.488V96.44H199.44V94.904H197.088V93.152H199.44V91.688H197.304V89.864H199.44V88.352H196.464V86.528H199.44V84.92H197.256V83.096H199.44V81.464H201.48V83.096H204.816V86.528H205.8V88.352H204.816V91.688ZM201.48 84.92V86.528H202.92V84.92H201.48ZM201.48 88.352V89.864H202.92V88.352H201.48ZM212.64 95.744C212.016 98.288 211.112 100.488 209.928 102.344L207.984 101.12C209.152 99.312 210 97.368 210.528 95.288L212.64 95.744ZM219.768 94.28C220.536 95.608 221.184 96.992 221.712 98.432L219.768 99.296C219.208 97.696 218.552 96.24 217.8 94.928L219.768 94.28ZM226.992 94.784C228.128 96.752 229.096 98.824 229.896 101L227.856 101.912C226.976 99.592 225.96 97.448 224.808 95.48L226.992 94.784ZM216.432 103.112C214.8 103.112 213.984 102.288 213.984 100.64V95.096H216.24V100.16C216.24 100.672 216.536 100.928 217.128 100.928H221.976C222.36 100.928 222.632 100.8 222.792 100.544C223.016 100.272 223.16 99.448 223.224 98.072L225.384 98.792C225.192 100.888 224.872 102.136 224.424 102.536C223.976 102.92 223.304 103.112 222.408 103.112H216.432ZM209.112 82.136H228.888V84.248H222.48V91.4H229.68V93.56H208.32V91.4H215.544V84.248H209.112V82.136ZM217.728 91.4H220.296V84.248H217.728V91.4ZM227.424 85.712C226.88 87.6 226.216 89.216 225.432 90.56L223.56 89.912C224.28 88.648 224.928 87.08 225.504 85.208L227.424 85.712ZM212.496 85.232C213.216 86.64 213.864 88.232 214.44 90.008L212.496 90.488C211.984 88.856 211.36 87.304 210.624 85.832L212.496 85.232ZM232.68 103.256L232.176 101.072C232.848 101.168 233.488 101.216 234.096 101.216C234.56 101.216 234.792 100.904 234.792 100.28V95.216C233.736 95.6 232.952 95.88 232.44 96.056L231.864 93.872C232.728 93.664 233.704 93.368 234.792 92.984V87.92H232.272V85.736H234.792V81.416H237.048V85.736H239.136V87.92H237.048V92.048C237.816 91.664 238.48 91.312 239.04 90.992V93.224C238.272 93.64 237.608 93.976 237.048 94.232V100.88C237.048 102.464 236.328 103.256 234.888 103.256H232.68ZM241.344 86.456H251.688V91.28H241.344V86.456ZM249.552 89.576V88.16H243.48V89.576H249.552ZM243.528 95.6H249.432V100.544H243.528V95.6ZM247.68 98.888V97.256H245.256V98.888H247.68ZM246.6 81.176C246.888 81.736 247.184 82.432 247.488 83.264H253.68V85.328H239.28V83.264H245.28C245.008 82.608 244.712 82.032 244.392 81.536L246.6 81.176ZM249.192 103.4L248.616 101.36L250.368 101.456C250.912 101.456 251.184 101.176 251.184 100.616V94.376H241.872V103.448H239.736V92.408H253.344V101.072C253.344 102.624 252.576 103.4 251.04 103.4H249.192ZM261 87.752C260.04 89.928 258.832 91.728 257.376 93.152L255.888 91.256C258.048 88.968 259.512 85.896 260.28 82.04L262.608 82.448C262.368 83.552 262.104 84.584 261.816 85.544H266.28V81.512H268.56V85.544H276.264V87.752H268.56V92.72H275.784V94.928H268.56V100.4H277.8V102.656H256.512V100.4H266.28V94.928H259.416V92.72H266.28V87.752H261ZM297.12 81.152C298.24 82.016 299.176 82.864 299.928 83.696L298.824 84.8H301.704V86.984H294.552C294.728 89.832 295.016 92.032 295.416 93.584C295.496 93.92 295.608 94.32 295.752 94.784C296.76 92.992 297.6 90.968 298.272 88.712L300.36 89.6C299.384 92.736 298.168 95.36 296.712 97.472C296.968 98.016 297.232 98.504 297.504 98.936C298.24 100.008 298.8 100.544 299.184 100.544C299.504 100.544 299.816 99.368 300.12 97.016L302.184 98.12C301.576 101.448 300.696 103.112 299.544 103.112C298.488 103.112 297.384 102.4 296.232 100.976C295.88 100.528 295.536 100 295.2 99.392C293.6 101.184 291.736 102.552 289.608 103.496L288.312 101.576C290.632 100.536 292.576 99.04 294.144 97.088C293.84 96.288 293.544 95.352 293.256 94.28C292.744 92.376 292.4 89.944 292.224 86.984H284.496V90.488H290.376C290.328 94.824 290.112 97.568 289.728 98.72C289.344 99.712 288.528 100.224 287.28 100.256C286.784 100.256 286.12 100.216 285.288 100.136L284.592 98.072C285.872 98.136 286.68 98.168 287.016 98.168C287.432 98.152 287.712 97.88 287.856 97.352C287.984 96.808 288.072 95.24 288.12 92.648H284.496V92.792C284.4 97.192 283.432 100.752 281.592 103.472L279.864 101.936C281.368 99.744 282.152 96.696 282.216 92.792V84.8H292.104C292.072 84.048 292.056 82.872 292.056 81.272H294.36C294.36 82.152 294.392 83.328 294.456 84.8H298.152C297.448 84.016 296.624 83.264 295.68 82.544L297.12 81.152ZM306.192 82.112H313.896V88.352H306.192V82.112ZM311.832 86.456V84.056H308.256V86.456H311.832ZM316.128 82.112H324.048V88.352H321.192C321.672 89.008 322.072 89.656 322.392 90.296H325.656V92.312H319.728C321.232 93.512 323.36 94.472 326.112 95.192L325.2 97.112L323.88 96.632V103.496H321.864V102.56H317.976V103.496H315.96V95.648H321.672C319.736 94.656 318.248 93.544 317.208 92.312H313.32C312.088 93.64 310.552 94.752 308.712 95.648H314.016V103.496H312V102.56H308.52V103.496H306.528V96.56C306.176 96.688 305.648 96.864 304.944 97.088L303.912 95.24C306.584 94.472 308.72 93.496 310.32 92.312H304.344V90.296H312.36C312.776 89.736 313.104 89.168 313.344 88.592L315.528 88.832C315.32 89.296 315.08 89.784 314.808 90.296H320.16C319.888 89.832 319.584 89.376 319.248 88.928L321.024 88.352H316.128V82.112ZM321.984 86.456V84.056H318.192V86.456H321.984ZM308.52 100.616H312V97.52H308.52V100.616ZM317.976 100.616H321.864V97.52H317.976V100.616Z" fill="white"/>
<path fill-rule="evenodd" clip-rule="evenodd" d="M59 173C54.0294 173 50 177.029 50 182C50 186.971 54.0294 191 59 191C63.9706 191 68 186.971 68 182C68 177.029 63.9706 173 59 173ZM62.2317 179.106L62.7059 179.504C62.9679 179.724 63.0018 180.114 62.7821 180.376L58.8854 185.017L58.6329 185.321C58.4144 185.584 58.0241 185.62 57.7611 185.402L57.7515 185.394L55.2888 183.26C55.0304 183.036 55.0024 182.645 55.2263 182.387L55.2341 182.378L55.6495 181.917C55.8746 181.667 56.2583 181.642 56.5134 181.862L58.0206 183.159L61.3594 179.182C61.5793 178.921 61.9697 178.887 62.2317 179.106Z" fill="white"/>
<path d="M94.144 178.704L93.872 179.808C94.096 181.184 94.3947 182.448 94.768 183.6C95.1627 182.149 95.3813 180.517 95.424 178.704H94.144ZM94.176 185.28C93.792 184.224 93.472 183.056 93.216 181.776C92.9707 182.384 92.7147 182.923 92.448 183.392L91.616 182.336L91.696 182.16H86.72V180.816H91.808V181.904C92.5973 180.08 93.136 177.728 93.424 174.848L94.752 175.072C94.6347 176.032 94.528 176.768 94.432 177.28H97.264V178.704H96.704C96.64 181.339 96.2453 183.6 95.52 185.488C96.0747 186.661 96.736 187.584 97.504 188.256L96.64 189.552C95.968 188.88 95.376 188.005 94.864 186.928C94.2987 187.973 93.5947 188.875 92.752 189.632L91.952 188.352C92.8693 187.573 93.6107 186.549 94.176 185.28ZM89.616 187.488C89.808 187.381 89.9253 187.216 89.968 186.992V184.48H88.592V185.2C88.56 187.152 88.064 188.608 87.104 189.568L85.984 188.592C86.7627 187.813 87.1627 186.683 87.184 185.2V183.104H91.296V186.432C91.808 185.963 92.2027 185.584 92.48 185.296L92.784 186.56C91.9627 187.445 91.1147 188.171 90.24 188.736L89.616 187.488ZM88.736 174.88H90V178.416H90.784V175.744H92.016V179.696H86.688V175.744H87.92V178.416H88.736V174.88ZM86.32 175.504C85.648 177.221 84.528 178.768 82.96 180.144L82.496 178.672C83.648 177.573 84.4907 176.315 85.024 174.896L86.32 175.504ZM86.384 179.792C86.192 180.325 85.9413 180.869 85.632 181.424V189.68H84.208V183.424C83.8667 183.808 83.4667 184.213 83.008 184.64L82.56 183.184C83.712 182.032 84.56 180.699 85.104 179.184L86.384 179.792ZM100.288 181.216C99.808 181.845 99.3653 182.389 98.96 182.848L98.464 181.216C99.936 179.36 101.035 177.195 101.76 174.72L103.184 175.392C102.8 176.619 102.331 177.765 101.776 178.832V189.68H100.288V181.216ZM102.896 176.816H107.584C107.381 176.272 107.141 175.744 106.864 175.232L108.32 174.832C108.661 175.557 108.917 176.219 109.088 176.816H113.408V178.24H102.896V176.816ZM104.352 179.216H112.048V180.576H104.352V179.216ZM104.352 181.472H112.048V182.848H104.352V181.472ZM112.384 183.856V189.648H110.912V188.816H105.472V189.648H104V183.856H112.384ZM105.472 187.392H110.912V185.264H105.472V187.392ZM121.616 177.872H126.096V174.848H127.632V177.872H129.28V179.344H127.632V187.76C127.632 188.987 126.997 189.6 125.728 189.6H123.296L122.976 188.112C123.744 188.176 124.485 188.208 125.2 188.208C125.797 188.208 126.096 187.931 126.096 187.376V179.344H121.616V177.872ZM116.08 179.008C117.125 180.16 118 181.179 118.704 182.064C119.205 180.763 119.499 179.355 119.584 177.84H115.328V176.368H120.944V177.488C120.912 179.632 120.491 181.584 119.68 183.344C120.267 184.155 120.832 184.976 121.376 185.808L120.256 186.928C119.872 186.256 119.424 185.547 118.912 184.8C118.069 186.165 116.928 187.456 115.488 188.672L114.624 187.344C116.043 186.267 117.168 184.997 118 183.536C117.147 182.395 116.165 181.205 115.056 179.968L116.08 179.008ZM122.688 180.96C123.712 182.219 124.512 183.36 125.088 184.384L123.888 185.216C123.301 184.171 122.517 183.035 121.536 181.808L122.688 180.96ZM135.712 179.424H139.952V177.248C138.864 177.344 137.701 177.392 136.464 177.392L136.016 176.032C139.248 176.032 141.984 175.685 144.224 174.992L144.96 176.256C143.936 176.608 142.779 176.88 141.488 177.072V179.424H145.488V180.896H141.488V183.12H144.496V189.6H142.992V188.896H138.48V189.6H136.976V183.12H139.952V180.896H135.712V179.424ZM138.48 187.472H142.992V184.512H138.48V187.472ZM132.768 175.008C133.824 175.808 134.704 176.597 135.408 177.376L134.368 178.432C133.707 177.653 132.821 176.859 131.712 176.048L132.768 175.008ZM130.608 179.648H134.304V186.448C134.837 185.989 135.349 185.52 135.84 185.04L136.24 186.64C135.216 187.6 134.144 188.443 133.024 189.168L132.448 187.808C132.715 187.573 132.848 187.301 132.848 186.992V181.104H130.608V179.648ZM150 179.168C149.36 180.619 148.555 181.819 147.584 182.768L146.592 181.504C148.032 179.979 149.008 177.931 149.52 175.36L151.072 175.632C150.912 176.368 150.736 177.056 150.544 177.696H153.52V175.008H155.04V177.696H160.176V179.168H155.04V182.48H159.856V183.952H155.04V187.6H161.2V189.104H147.008V187.6H153.52V183.952H148.944V182.48H153.52V179.168H150ZM174.08 174.768C174.827 175.344 175.451 175.909 175.952 176.464L175.216 177.2H177.136V178.656H172.368C172.485 180.555 172.677 182.021 172.944 183.056C172.997 183.28 173.072 183.547 173.168 183.856C173.84 182.661 174.4 181.312 174.848 179.808L176.24 180.4C175.589 182.491 174.779 184.24 173.808 185.648C173.979 186.011 174.155 186.336 174.336 186.624C174.827 187.339 175.2 187.696 175.456 187.696C175.669 187.696 175.877 186.912 176.08 185.344L177.456 186.08C177.051 188.299 176.464 189.408 175.696 189.408C174.992 189.408 174.256 188.933 173.488 187.984C173.253 187.685 173.024 187.333 172.8 186.928C171.733 188.123 170.491 189.035 169.072 189.664L168.208 188.384C169.755 187.691 171.051 186.693 172.096 185.392C171.893 184.859 171.696 184.235 171.504 183.52C171.163 182.251 170.933 180.629 170.816 178.656H165.664V180.992H169.584C169.552 183.883 169.408 185.712 169.152 186.48C168.896 187.141 168.352 187.483 167.52 187.504C167.189 187.504 166.747 187.477 166.192 187.424L165.728 186.048C166.581 186.091 167.12 186.112 167.344 186.112C167.621 186.101 167.808 185.92 167.904 185.568C167.989 185.205 168.048 184.16 168.08 182.432H165.664V182.528C165.6 185.461 164.955 187.835 163.728 189.648L162.576 188.624C163.579 187.163 164.101 185.131 164.144 182.528V177.2H170.736C170.715 176.699 170.704 175.915 170.704 174.848H172.24C172.24 175.435 172.261 176.219 172.304 177.2H174.768C174.299 176.677 173.749 176.176 173.12 175.696L174.08 174.768ZM180.128 175.408H185.264V179.568H180.128V175.408ZM183.888 178.304V176.704H181.504V178.304H183.888ZM186.752 175.408H192.032V179.568H190.128C190.448 180.005 190.715 180.437 190.928 180.864H193.104V182.208H189.152C190.155 183.008 191.573 183.648 193.408 184.128L192.8 185.408L191.92 185.088V189.664H190.576V189.04H187.984V189.664H186.64V184.432H190.448C189.157 183.771 188.165 183.029 187.472 182.208H184.88C184.059 183.093 183.035 183.835 181.808 184.432H185.344V189.664H184V189.04H181.68V189.664H180.352V185.04C180.117 185.125 179.765 185.243 179.296 185.392L178.608 184.16C180.389 183.648 181.813 182.997 182.88 182.208H178.896V180.864H184.24C184.517 180.491 184.736 180.112 184.896 179.728L186.352 179.888C186.213 180.197 186.053 180.523 185.872 180.864H189.44C189.259 180.555 189.056 180.251 188.832 179.952L190.016 179.568H186.752V175.408ZM190.656 178.304V176.704H188.128V178.304H190.656ZM181.68 187.744H184V185.68H181.68V187.744ZM187.984 187.744H190.576V185.68H187.984V187.744Z" fill="white"/>
<path fill-rule="evenodd" clip-rule="evenodd" d="M59 221C54.0294 221 50 225.029 50 230C50 234.971 54.0294 239 59 239C63.9706 239 68 234.971 68 230C68 225.029 63.9706 221 59 221ZM62.2317 227.106L62.7059 227.504C62.9679 227.724 63.0018 228.114 62.7821 228.376L58.8854 233.017L58.6329 233.321C58.4144 233.584 58.0241 233.62 57.7611 233.402L57.7515 233.394L55.2888 231.26C55.0304 231.036 55.0024 230.645 55.2263 230.387L55.2341 230.378L55.6495 229.917C55.8746 229.667 56.2583 229.642 56.5134 229.862L58.0206 231.159L61.3594 227.182C61.5793 226.921 61.9697 226.887 62.2317 227.106Z" fill="white"/>
<path d="M85.696 227.328H87.152V229.584H88.816V230.944H87.152V232.768C87.792 232.64 88.4747 232.485 89.2 232.304V233.744L87.152 234.224V237.632H85.696V234.512C84.544 234.715 83.5733 234.864 82.784 234.96L82.592 233.472C83.7013 233.344 84.736 233.2 85.696 233.04V230.944H83.136L82.816 229.6C83.2533 228.704 83.648 227.611 84 226.32H82.592V224.848H84.384C84.5547 224.101 84.6933 223.445 84.8 222.88L86.24 223.088C86.1013 223.76 85.9733 224.347 85.856 224.848H88.736V226.32H85.472C85.1093 227.579 84.736 228.667 84.352 229.584H85.696V227.328ZM89.376 224.848H91.792C91.888 224.347 92.0053 223.685 92.144 222.864L93.632 223.008L93.312 224.848H97.024V226.32H93.008C92.9013 226.832 92.7893 227.328 92.672 227.808H97.424V229.264H92.304L91.792 230.976H96.784V232.224C96.272 233.248 95.4933 234.267 94.448 235.28C94.896 235.557 95.4453 235.931 96.096 236.4L95.248 237.712C93.5947 236.432 91.9093 235.424 90.192 234.688L91.008 233.488C91.744 233.797 92.48 234.16 93.216 234.576C94.0587 233.829 94.7253 233.077 95.216 232.32H89.904C90.1493 231.563 90.448 230.544 90.8 229.264H88.912V227.808H91.168L91.504 226.32H89.376V224.848ZM104.944 223.424V233.616H103.616V224.816H100.528V233.616H99.152V223.424H104.944ZM101.408 225.824H102.688V231.056C102.656 232.859 102.384 234.293 101.872 235.36C101.371 236.373 100.571 237.152 99.472 237.696L98.656 236.416C99.7013 235.883 100.416 235.216 100.8 234.416C101.163 233.541 101.365 232.421 101.408 231.056V225.824ZM103.264 234.016C104.075 234.827 104.773 235.648 105.36 236.48L104.272 237.568C103.813 236.768 103.157 235.899 102.304 234.96L103.264 234.016ZM107.968 230.848V235.728C108.64 235.461 109.285 235.125 109.904 234.72L110.176 236.08C109.184 236.699 108.027 237.216 106.704 237.632L106.08 236.288C106.347 236.139 106.48 235.936 106.48 235.68V230.848H105.456V229.376H106.48V222.896H107.968V229.376H113.136V230.848H110.432C111.157 233.216 112.165 235.04 113.456 236.32L112.432 237.504C110.981 235.979 109.883 233.76 109.136 230.848H107.968ZM112.928 224.512C111.819 226.325 110.523 227.659 109.04 228.512L108.224 227.344C109.579 226.523 110.757 225.264 111.76 223.568L112.928 224.512ZM116.784 233.632C117.467 234.101 118.107 234.651 118.704 235.28C119.237 235.824 119.717 236.389 120.144 236.976L119.104 237.856C118.741 237.333 118.272 236.763 117.696 236.144C117.12 235.536 116.512 234.976 115.872 234.464L116.784 233.632ZM136.288 235.76C134.677 236.357 132.885 236.832 130.912 237.184L130.72 235.696C132.832 235.344 134.688 234.88 136.288 234.304V235.76ZM135.024 223.472C134.213 225.36 133.381 226.917 132.528 228.144C132.955 228.101 133.605 228.016 134.48 227.888C134.8 227.323 135.157 226.661 135.552 225.904L136.912 226.416C135.461 229.083 134.235 231.035 133.232 232.272C134.309 232.016 135.403 231.68 136.512 231.264V232.656C134.645 233.339 132.912 233.792 131.312 234.016L130.896 232.624C131.173 232.496 131.403 232.347 131.584 232.176C132.171 231.589 132.869 230.624 133.68 229.28C133.061 229.376 132.187 229.493 131.056 229.632L130.656 228.24C130.912 228.123 131.136 227.925 131.328 227.648C132.16 226.272 132.907 224.688 133.568 222.896L135.024 223.472ZM140.24 225.328H137.072V223.856H144.896V225.328H141.76V235.52H145.312V236.992H136.624V235.52H140.24V225.328ZM156.272 227.648V232.784H150.576V235.392C150.576 235.808 150.821 236.016 151.312 236.016H158.672C159.013 235.984 159.243 235.845 159.36 235.6C159.445 235.419 159.536 234.843 159.632 233.872L161.072 234.336C160.976 235.275 160.853 235.963 160.704 236.4C160.48 237.061 159.963 237.408 159.152 237.44H150.688C149.6 237.44 149.056 236.955 149.056 235.984V228.128C148.683 228.576 148.32 228.965 147.968 229.296L146.912 228.016C148.32 226.736 149.52 224.976 150.512 222.736L152.048 223.088C151.909 223.408 151.701 223.867 151.424 224.464H160.176C160.176 228.592 160.091 231.184 159.92 232.24C159.76 233.243 159.099 233.744 157.936 233.744L156.928 233.68L156.56 232.32C157.061 232.373 157.445 232.4 157.712 232.4C158.139 232.4 158.384 232.123 158.448 231.568C158.533 231.056 158.592 229.173 158.624 225.92H150.624C150.197 226.603 149.803 227.179 149.44 227.648H156.272ZM150.576 231.408H154.736V229.024H150.576V231.408ZM164.64 226.208C164.384 226.784 164.075 227.275 163.712 227.68L162.48 226.8C163.248 225.968 163.733 224.821 163.936 223.36L165.36 223.584C165.264 224.117 165.179 224.528 165.104 224.816H166.56V222.928H168.064V224.816H170.928V226.208H168.064V227.92H171.392V229.344H168.064V230.688H171.152V234.96C171.152 236.016 170.608 236.544 169.52 236.544H168.736L168.352 235.12L169.056 235.184C169.493 235.184 169.712 235.003 169.712 234.64V232.096H168.064V237.648H166.56V232.096H164.912V236.656H163.44V230.688H166.56V229.344H162.816V227.92H166.56V226.208H164.64ZM172.144 224.368H173.616V234.16H172.144V224.368ZM172.848 237.504L172.512 236.048C173.28 236.112 174.011 236.144 174.704 236.144C175.12 236.144 175.328 235.925 175.328 235.488V222.928H176.832V235.872C176.832 236.96 176.299 237.504 175.232 237.504H172.848ZM185.904 226.496C185.179 228.021 184.352 229.349 183.424 230.48L182.336 229.168C183.669 227.611 184.8 225.472 185.728 222.752L187.264 223.088C187.072 223.675 186.837 224.315 186.56 225.008H193.152V226.496H188.016V228.784H192.512V230.256H188.016V232.608H192.544V234.064H188.016V237.68H186.48V226.496H185.904ZM180.448 229.136C180.032 229.637 179.547 230.176 178.992 230.752L178.48 229.12C180.123 227.317 181.339 225.211 182.128 222.8L183.568 223.472C183.152 224.688 182.624 225.84 181.984 226.928V237.68H180.448V229.136Z" fill="white"/>
<path fill-rule="evenodd" clip-rule="evenodd" d="M59 269C54.0294 269 50 273.029 50 278C50 282.971 54.0294 287 59 287C63.9706 287 68 282.971 68 278C68 273.029 63.9706 269 59 269ZM62.2317 275.106L62.7059 275.504C62.9679 275.724 63.0018 276.114 62.7821 276.376L58.8854 281.017L58.6329 281.321C58.4144 281.584 58.0241 281.62 57.7611 281.402L57.7515 281.394L55.2888 279.26C55.0304 279.036 55.0024 278.645 55.2263 278.387L55.2341 278.378L55.6495 277.917C55.8746 277.667 56.2583 277.642 56.5134 277.862L58.0206 279.159L61.3594 275.182C61.5793 274.921 61.9697 274.887 62.2317 275.106Z" fill="white"/>
<path d="M90.048 279.872L89.712 278.464C90.096 278.528 90.4533 278.56 90.784 278.56C91.0613 278.56 91.2 278.357 91.2 277.952V274.272H92.704V278.304C92.704 279.349 92.2347 279.872 91.296 279.872H90.048ZM84.576 275.648C84.1707 276.075 83.7973 276.443 83.456 276.752L82.496 275.6C83.8507 274.469 85.008 272.891 85.968 270.864L87.44 271.2C87.024 272.085 86.56 272.928 86.048 273.728V279.824H84.576V275.648ZM91.008 271.184L90.496 272.24H96.768V273.168C96.5547 273.989 96.2933 274.779 95.984 275.536L94.624 275.168C94.8693 274.72 95.0827 274.203 95.264 273.616H89.664C89.0773 274.469 88.4267 275.221 87.712 275.872L86.784 274.736C87.872 273.787 88.8 272.491 89.568 270.848L91.008 271.184ZM85.76 280.832C85.344 282.432 84.7787 283.808 84.064 284.96L82.784 284.144C83.4773 283.045 83.9787 281.84 84.288 280.528L85.76 280.832ZM88.272 285.408C87.184 285.408 86.64 284.827 86.64 283.664V280.384H88.176V283.344C88.176 283.76 88.3627 283.968 88.736 283.968H92.032C92.3093 283.968 92.5227 283.877 92.672 283.696C92.8533 283.504 92.9653 282.923 93.008 281.952L94.448 282.416C94.32 283.877 94.0853 284.747 93.744 285.024C93.4453 285.28 92.9707 285.408 92.32 285.408H88.272ZM95.152 279.968C96.1973 281.397 96.9813 282.624 97.504 283.648L96.24 284.544C95.7067 283.467 94.9333 282.197 93.92 280.736L95.152 279.968ZM90.368 276.224C89.8133 277.408 89.1147 278.459 88.272 279.376L87.12 278.56C87.92 277.728 88.5973 276.757 89.152 275.648L90.368 276.224ZM94.768 275.632C95.504 276.528 96.1867 277.568 96.816 278.752L95.52 279.408C94.9227 278.203 94.2507 277.125 93.504 276.176L94.768 275.632ZM90.384 280.032C91.12 280.885 91.696 281.648 92.112 282.32L90.928 283.152C90.5013 282.405 89.936 281.605 89.232 280.752L90.384 280.032ZM104.608 273.52V284.656H103.152V283.824H100.624V285.12H99.168V273.52H100.688C100.997 272.592 101.211 271.701 101.328 270.848L102.848 271.056C102.699 271.899 102.464 272.72 102.144 273.52H104.608ZM100.624 282.416H103.152V279.264H100.624V282.416ZM100.624 277.904H103.152V274.96H100.624V277.904ZM107.488 277.36C108.587 278.715 109.397 279.861 109.92 280.8L108.72 281.648C108.155 280.667 107.333 279.493 106.256 278.128L107.488 277.36ZM112.864 273.536C112.864 279.061 112.784 282.464 112.624 283.744C112.464 284.896 111.701 285.472 110.336 285.472C110.091 285.472 109.525 285.445 108.64 285.392L108.272 284C109.211 284.043 109.819 284.064 110.096 284.064C110.736 284.064 111.104 283.728 111.2 283.056C111.285 282.352 111.344 279.669 111.376 275.008H107.36C106.891 276 106.368 276.88 105.792 277.648L104.88 276.448C105.947 274.891 106.672 273.019 107.056 270.832L108.56 271.024C108.411 271.835 108.197 272.672 107.92 273.536H112.864ZM114.768 275.616H119.264L119.664 274H115.856V272.576H119.984L120.352 270.736L121.92 270.864C121.739 271.803 121.632 272.373 121.6 272.576H128.288V274H121.296C121.157 274.619 121.029 275.157 120.912 275.616H129.232V277.072H120.512C120.256 277.915 120.069 278.512 119.952 278.864H127.36V280.176C126.635 281.253 125.499 282.347 123.952 283.456C124.816 283.776 125.648 284.112 126.448 284.464L125.616 285.776C123.184 284.635 120.741 283.749 118.288 283.12L119.088 281.936C120.336 282.256 121.408 282.571 122.304 282.88C123.68 282.005 124.752 281.131 125.52 280.256H117.776C118.139 279.285 118.496 278.224 118.848 277.072H114.768V275.616ZM134.752 276.992H138.496V276.384C136.789 276.427 135.429 276.448 134.416 276.448L134.032 275.328C137.733 275.328 140.949 275.195 143.68 274.928L144.304 276.016C142.971 276.165 141.515 276.272 139.936 276.336V276.992H143.744V279.968H139.936V280.656H144.832V284.08C144.832 285.093 144.352 285.6 143.392 285.6H141.744L141.408 284.336L141.824 284.352C141.739 284.096 141.675 283.915 141.632 283.808C140.128 284.032 138.389 284.245 136.416 284.448L136.112 283.2L138.496 283.024V281.872H135.376V285.648H133.984V280.656H138.496V279.968H134.752V276.992ZM139.84 281.872V282.912L141.248 282.752C141.099 282.379 140.971 282.085 140.864 281.872H139.84ZM142.384 278.912V278.096H139.936V278.912H142.384ZM138.496 278.912V278.096H136.128V278.912H138.496ZM141.984 284.352L142.976 284.384C143.307 284.384 143.472 284.187 143.472 283.792V281.872H142.016C142.325 282.533 142.613 283.232 142.88 283.968L141.984 284.352ZM143.072 272.608H133.6V273.504H143.072V272.608ZM133.6 274.624V276.224C133.589 279.776 132.971 282.832 131.744 285.392L130.608 284.368C131.611 282.256 132.117 279.541 132.128 276.224V271.408H144.512V274.624H133.6ZM152.592 274.832H160.24V279.936H157.056C157.013 280.352 156.976 280.677 156.944 280.912H161.312V282.288H157.536C158.443 283.216 159.733 283.963 161.408 284.528L160.384 285.744C158.581 284.955 157.237 283.989 156.352 282.848C155.787 283.989 154.512 284.944 152.528 285.712L151.552 284.528C153.323 283.931 154.485 283.184 155.04 282.288H151.44V280.912H155.568C155.632 280.603 155.68 280.277 155.712 279.936H152.592V274.832ZM158.88 278.784V277.952H153.952V278.784H158.88ZM153.952 276.832H158.88V276.016H153.952V276.832ZM151.6 272.128H153.84V270.928H155.28V272.128H157.392V270.928H158.832V272.128H161.184V273.472H158.832V274.464H157.392V273.472H155.28V274.464H153.84V273.472H151.6V272.128ZM150.208 285.6H148.768V278.192C148.309 279.557 147.76 280.784 147.12 281.872L146.464 280.192C147.499 278.763 148.256 277.136 148.736 275.312H146.88V273.92H148.768V270.88H150.208V273.92H151.648V275.312H150.208V276.288C150.72 276.907 151.339 277.733 152.064 278.768L151.264 279.952C150.837 279.131 150.485 278.48 150.208 278V285.6ZM163.232 285.44L162.928 284.016C163.344 284.08 163.733 284.112 164.096 284.112C164.459 284.112 164.64 283.909 164.64 283.504V280.112C164.032 280.325 163.483 280.512 162.992 280.672L162.64 279.232C163.333 279.072 164 278.88 164.64 278.656V275.152H162.816V273.696H164.64V270.896H166.112V273.696H167.664V275.152H166.112V278.08C166.699 277.824 167.227 277.563 167.696 277.296V278.784C166.992 279.125 166.464 279.371 166.112 279.52V283.872C166.112 284.917 165.616 285.44 164.624 285.44H163.232ZM175.984 271.168C175.984 274.155 175.739 276.725 175.248 278.88C175.152 279.285 175.029 279.728 174.88 280.208C175.968 281.915 176.789 283.381 177.344 284.608L176.128 285.456C175.584 284.24 174.955 282.997 174.24 281.728C173.472 283.189 172.389 284.485 170.992 285.616L170.048 284.48C171.968 282.901 173.221 280.96 173.808 278.656C174.277 276.715 174.512 274.219 174.512 271.168H175.984ZM167.696 281.952C168.155 281.739 168.384 281.451 168.384 281.088V271.824H169.824V281.216C170.421 280.981 171.061 280.683 171.744 280.32L172.128 281.664C170.933 282.283 169.611 282.832 168.16 283.312L167.696 281.952ZM171.696 272.816C172.389 274.043 172.997 275.392 173.52 276.864L172.256 277.44C171.68 275.819 171.067 274.416 170.416 273.232L171.696 272.816ZM191.68 280.352C192.288 281.749 192.853 283.408 193.376 285.328L191.952 285.696C191.803 285.077 191.669 284.581 191.552 284.208C189.632 284.656 187.504 284.992 185.168 285.216L184.88 283.728C185.851 283.44 187.077 282.096 188.56 279.696L185.12 279.984L184.752 278.656C184.987 278.56 185.195 278.379 185.376 278.112C186.208 276.949 186.96 275.664 187.632 274.256H184.768V272.848H188.288C188.096 272.283 187.861 271.701 187.584 271.104L189.12 270.848C189.355 271.456 189.573 272.123 189.776 272.848H193.184V274.256H189.264C188.4 275.984 187.483 277.435 186.512 278.608C187.333 278.555 188.283 278.464 189.36 278.336C190 277.152 190.437 276.331 190.672 275.872L192.08 276.352C190.555 279.243 188.976 281.675 187.344 283.648C188.645 283.477 189.915 283.221 191.152 282.88C190.917 282.144 190.661 281.44 190.384 280.768L191.68 280.352ZM180.432 274.064C180.4 275.653 180.229 277.189 179.92 278.672L178.688 278.32C179.008 276.944 179.184 275.499 179.216 273.984L180.432 274.064ZM182.192 281.008C181.733 282.96 180.939 284.507 179.808 285.648L178.672 284.656C180.325 283.035 181.168 280.432 181.2 276.848V270.992H182.64V274.736C183.056 274.288 183.456 273.765 183.84 273.168L184.688 274.336C184.059 275.083 183.376 275.701 182.64 276.192V276.848C182.619 277.893 182.549 278.811 182.432 279.6C183.296 280.432 184.123 281.317 184.912 282.256L184.032 283.552C183.285 282.443 182.672 281.595 182.192 281.008ZM197.2 274.128H206.784V275.328H197.2V274.128ZM197.584 276.032H206.416V279.216H197.584V276.032ZM204.992 278.144V277.136H199.008V278.144H204.992ZM207.808 279.888V285.664H206.368V285.184H197.664V285.68H196.224V279.888H207.808ZM197.664 283.984H201.264V283.04H197.664V283.984ZM202.736 283.984H206.368V283.04H202.736V283.984ZM197.664 281.936H201.264V281.04H197.664V281.936ZM202.736 281.04V281.936H206.368V281.04H202.736ZM208.832 272.016V275.216H207.376V273.36H196.624V275.216H195.168V272.016H201.216C201.067 271.664 200.891 271.323 200.688 270.992L202.304 270.736C202.485 271.109 202.661 271.536 202.832 272.016H208.832ZM218.112 277.904V279.728H219.936V277.904H218.112ZM221.424 277.904V279.728H223.328V277.904H221.424ZM223.328 281.168H221.424V285.616H219.936V281.168H218.112V281.968H216.608V273.232H219.936V270.848H221.424V273.232H224.832V281.952H223.328V281.168ZM223.328 276.512V274.672H221.424V276.512H223.328ZM219.936 276.512V274.672H218.112V276.512H219.936ZM212.816 279.392C212.219 280 211.643 280.549 211.088 281.04L210.608 279.44C212.56 277.723 213.867 276.053 214.528 274.432H210.96V272.976H213.088C212.832 272.272 212.581 271.664 212.336 271.152L213.776 270.752C214.085 271.52 214.341 272.261 214.544 272.976H216.064V274.256C215.68 275.387 215.093 276.501 214.304 277.6V277.696C215.072 278.155 215.771 278.683 216.4 279.28L215.584 280.528C215.211 280.112 214.784 279.701 214.304 279.296V285.648H212.816V279.392ZM228.128 271.408H233.264V275.568H228.128V271.408ZM231.888 274.304V272.704H229.504V274.304H231.888ZM234.752 271.408H240.032V275.568H238.128C238.448 276.005 238.715 276.437 238.928 276.864H241.104V278.208H237.152C238.155 279.008 239.573 279.648 241.408 280.128L240.8 281.408L239.92 281.088V285.664H238.576V285.04H235.984V285.664H234.64V280.432H238.448C237.157 279.771 236.165 279.029 235.472 278.208H232.88C232.059 279.093 231.035 279.835 229.808 280.432H233.344V285.664H232V285.04H229.68V285.664H228.352V281.04C228.117 281.125 227.765 281.243 227.296 281.392L226.608 280.16C228.389 279.648 229.813 278.997 230.88 278.208H226.896V276.864H232.24C232.517 276.491 232.736 276.112 232.896 275.728L234.352 275.888C234.213 276.197 234.053 276.523 233.872 276.864H237.44C237.259 276.555 237.056 276.251 236.832 275.952L238.016 275.568H234.752V271.408ZM238.656 274.304V272.704H236.128V274.304H238.656ZM229.68 283.744H232V281.68H229.68V283.744ZM235.984 283.744H238.576V281.68H235.984V283.744Z" fill="white"/>
<path fill-rule="evenodd" clip-rule="evenodd" d="M59 317C54.0294 317 50 321.029 50 326C50 330.971 54.0294 335 59 335C63.9706 335 68 330.971 68 326C68 321.029 63.9706 317 59 317ZM62.2317 323.106L62.7059 323.504C62.9679 323.724 63.0018 324.114 62.7821 324.376L58.8854 329.017L58.6329 329.321C58.4144 329.584 58.0241 329.62 57.7611 329.402L57.7515 329.394L55.2888 327.26C55.0304 327.036 55.0024 326.645 55.2263 326.387L55.2341 326.378L55.6495 325.917C55.8746 325.667 56.2583 325.642 56.5134 325.862L58.0206 327.159L61.3594 323.182C61.5793 322.921 61.9697 322.887 62.2317 323.106Z" fill="white"/>
<path d="M89.008 321.424C88.8267 321.723 88.592 322.069 88.304 322.464H96.272L96.144 326.16H97.408V327.568H96.08L95.952 330.016H97.152V331.312H95.84C95.8187 331.643 95.7813 331.904 95.728 332.096C95.568 332.619 95.264 333.003 94.816 333.248C94.3573 333.493 93.7067 333.616 92.864 333.616L91.344 333.632L90.912 332.256C91.6267 332.309 92.208 332.336 92.656 332.336C93.008 332.336 93.3493 332.299 93.68 332.224C93.968 332.107 94.1867 331.888 94.336 331.568L94.4 331.312H86.816C87.104 329.904 87.3173 328.656 87.456 327.568H85.984V326.16H87.616C87.7333 325.029 87.808 324 87.84 323.072C87.456 323.499 87.1893 323.787 87.04 323.936L86.08 322.768C87.0933 321.797 87.9627 320.453 88.688 318.736L90.208 319.056C90.0693 319.387 89.9253 319.707 89.776 320.016H96.928V321.424H89.008ZM88.896 327.568C88.7787 328.507 88.6453 329.323 88.496 330.016H92.048C91.5467 329.472 90.912 328.928 90.144 328.384L90.976 327.568H88.896ZM92.144 330.016H94.512L94.64 327.568H91.248C91.9733 328.08 92.5813 328.592 93.072 329.104L92.144 330.016ZM94.688 326.16L94.784 323.776H89.216C89.152 324.821 89.0987 325.616 89.056 326.16H92.176C91.664 325.68 91.04 325.211 90.304 324.752L91.248 323.824C92.0267 324.304 92.6933 324.795 93.248 325.296L92.368 326.16H94.688ZM84 319.056C84.928 319.685 85.7333 320.352 86.416 321.056L85.328 322.144C84.7733 321.525 83.968 320.843 82.912 320.096L84 319.056ZM83.744 322.944C84.6933 323.605 85.4987 324.293 86.16 325.008L85.088 326.08C84.5013 325.429 83.6907 324.736 82.656 324L83.744 322.944ZM86.384 328.208C85.7333 330.064 84.9973 331.808 84.176 333.44L82.768 332.816C83.664 331.131 84.4267 329.424 85.056 327.696L86.384 328.208ZM100.32 325.6H111.712V329.76H106.736V330.464H112.032V331.44H106.736V332.192H113.2V333.344H98.8V332.192H105.232V331.44H100V330.464H105.232V329.76H100.32V325.6ZM110.272 328.864V328.096H106.736V328.864H110.272ZM105.232 328.864V328.096H101.76V328.864H105.232ZM101.76 327.264H105.232V326.496H101.76V327.264ZM106.736 326.496V327.264H110.272V326.496H106.736ZM100.672 319.12H111.376V323.184H100.672V319.12ZM109.92 322.32V321.584H102.128V322.32H109.92ZM102.128 320.72H109.92V320H102.128V320.72ZM98.8 323.856H113.2V324.944H98.8V323.856ZM120.592 322.832H128.24V327.936H125.056C125.013 328.352 124.976 328.677 124.944 328.912H129.312V330.288H125.536C126.443 331.216 127.733 331.963 129.408 332.528L128.384 333.744C126.581 332.955 125.237 331.989 124.352 330.848C123.787 331.989 122.512 332.944 120.528 333.712L119.552 332.528C121.323 331.931 122.485 331.184 123.04 330.288H119.44V328.912H123.568C123.632 328.603 123.68 328.277 123.712 327.936H120.592V322.832ZM126.88 326.784V325.952H121.952V326.784H126.88ZM121.952 324.832H126.88V324.016H121.952V324.832ZM119.6 320.128H121.84V318.928H123.28V320.128H125.392V318.928H126.832V320.128H129.184V321.472H126.832V322.464H125.392V321.472H123.28V322.464H121.84V321.472H119.6V320.128ZM118.208 333.6H116.768V326.192C116.309 327.557 115.76 328.784 115.12 329.872L114.464 328.192C115.499 326.763 116.256 325.136 116.736 323.312H114.88V321.92H116.768V318.88H118.208V321.92H119.648V323.312H118.208V324.288C118.72 324.907 119.339 325.733 120.064 326.768L119.264 327.952C118.837 327.131 118.485 326.48 118.208 326V333.6ZM130.816 321.872H132.96V318.896H134.48V321.872H136.256V323.344H134.48V324.032C135.141 324.715 135.829 325.493 136.544 326.368L135.68 327.664C135.211 326.8 134.811 326.101 134.48 325.568V333.568H132.96V326.272C132.469 327.648 131.888 328.891 131.216 330L130.544 328.32C131.621 326.88 132.411 325.221 132.912 323.344H130.816V321.872ZM144.96 320.336C142.912 320.891 140.693 321.216 138.304 321.312V323.392H144.528V324.528C144.368 326.608 143.755 328.427 142.688 329.984C143.477 330.848 144.421 331.6 145.52 332.24L144.736 333.6C143.595 332.949 142.592 332.144 141.728 331.184C140.853 332.123 139.808 332.96 138.592 333.696L137.6 332.528C138.88 331.781 139.941 330.928 140.784 329.968C139.824 328.507 139.184 326.805 138.864 324.864H138.304V326.144C138.229 329.28 137.563 331.787 136.304 333.664L135.216 332.512C136.219 330.965 136.757 328.843 136.832 326.144V320.032C139.573 319.989 142.027 319.621 144.192 318.928L144.96 320.336ZM141.712 328.736C142.459 327.563 142.933 326.272 143.136 324.864H140.208C140.464 326.293 140.965 327.584 141.712 328.736ZM148.624 324C148.315 324.224 148.016 324.427 147.728 324.608L146.768 323.44C148.645 322.32 150.256 320.773 151.6 318.8L153.136 319.136C152.987 319.371 152.752 319.712 152.432 320.16H157.776V321.312C157.168 322.069 156.603 322.688 156.08 323.168H159.744V328.304H156.128V331.216C156.128 331.696 156.325 331.936 156.72 331.936H159.152C159.376 331.936 159.536 331.835 159.632 331.632C159.76 331.408 159.84 330.747 159.872 329.648L161.312 330.112C161.184 331.712 160.981 332.667 160.704 332.976C160.437 333.264 160.016 333.408 159.44 333.408H156.256C155.157 333.408 154.608 332.784 154.608 331.536V328.304H154.048C153.952 328.592 153.84 328.864 153.712 329.12C152.869 330.965 150.891 332.491 147.776 333.696L146.816 332.512C149.547 331.499 151.349 330.24 152.224 328.736L152.432 328.304H148.624V324ZM154.176 323.168C154.72 322.688 155.264 322.144 155.808 321.536H151.328C150.741 322.176 150.187 322.72 149.664 323.168H154.176ZM158.288 326.88V324.576H154.736C154.704 325.376 154.613 326.144 154.464 326.88H158.288ZM152.896 326.88C153.067 326.144 153.173 325.376 153.216 324.576H150.096V326.88H152.896ZM165.632 322.736L165.408 323.52H167.312C167.376 323.264 167.424 323.003 167.456 322.736H165.632ZM168.928 322.736C168.917 323.003 168.885 323.264 168.832 323.52H171.008V322.736H168.928ZM172.48 322.736V323.52H176.704C176.704 324.757 176.576 325.547 176.32 325.888C176.064 326.229 175.472 326.411 174.544 326.432C174.363 326.432 174.112 326.421 173.792 326.4L173.52 325.36C173.808 325.392 174.091 325.408 174.368 325.408C174.784 325.408 175.04 325.349 175.136 325.232C175.221 325.093 175.264 324.907 175.264 324.672H172.48V326.336H171.008V324.672H168.432C168.208 325.088 167.963 325.429 167.696 325.696C167.355 326.027 166.875 326.341 166.256 326.64H175.392V331.088H173.888V327.984H166.528V331.088H165.04V327.088C164.645 327.205 164.309 327.296 164.032 327.36L163.264 326.176C164.875 325.824 165.968 325.376 166.544 324.832L166.688 324.672H163.776L164.4 321.568H167.472V320.784H163.92V319.552H167.472V318.848H168.944V319.552H171.008V318.848H172.48V319.552H175.872V322.736H172.48ZM168.944 320.784V321.568H171.008V320.784H168.944ZM172.48 320.784V321.568H174.464V320.784H172.48ZM171.184 330.768C173.296 331.259 175.179 331.84 176.832 332.512L176 333.776C174.24 332.997 172.379 332.379 170.416 331.92L171.184 330.768ZM170.912 328.528C170.709 330.363 170.229 331.584 169.472 332.192C168.661 332.971 166.773 333.472 163.808 333.696L163.2 332.336C165.728 332.219 167.387 331.877 168.176 331.312C168.869 330.747 169.28 329.771 169.408 328.384L170.912 328.528ZM183.472 320.384H187.488V318.88H189.008V320.384H193.312V321.84H189.008V323.104H192.704V327.856H188.944C188.816 329.189 188.571 330.224 188.208 330.96C189.733 331.739 191.477 332.176 193.44 332.272L193.072 333.728C190.896 333.579 188.987 333.045 187.344 332.128C186.491 332.939 185.147 333.472 183.312 333.728L182.656 332.352C184.16 332.224 185.275 331.861 186 331.264C185.147 330.624 184.357 329.861 183.632 328.976L184.8 328.176C185.419 328.944 186.107 329.595 186.864 330.128C187.131 329.488 187.312 328.731 187.408 327.856H183.92V323.104H187.488V321.84H183.472V320.384ZM191.28 326.496V324.448H189.008V326.496H191.28ZM187.488 326.496V324.448H185.344V326.496H187.488ZM180.336 325.264C179.909 325.808 179.451 326.347 178.96 326.88L178.464 325.248C180.032 323.392 181.184 321.227 181.92 318.752L183.36 319.424C182.987 320.619 182.491 321.781 181.872 322.912V333.68H180.336V325.264ZM197.616 324.688V327.136H201.296V324.688H197.616ZM197.536 328.544C197.344 330.56 196.752 332.224 195.76 333.536L194.592 332.496C195.552 331.12 196.048 329.376 196.08 327.264V319.424H208.352V331.472C208.352 332.677 207.739 333.28 206.512 333.28H204.672L204.272 331.792C204.965 331.845 205.547 331.872 206.016 331.872C206.539 331.872 206.8 331.557 206.8 330.928V328.544H202.832V333.104H201.296V328.544H197.536ZM206.8 327.136V324.688H202.832V327.136H206.8ZM206.8 323.296V320.896H202.832V323.296H206.8ZM201.296 320.896H197.616V323.296H201.296V320.896Z" fill="white"/>
<path fill-rule="evenodd" clip-rule="evenodd" d="M59 365C54.0294 365 50 369.029 50 374C50 378.971 54.0294 383 59 383C63.9706 383 68 378.971 68 374C68 369.029 63.9706 365 59 365ZM62.2317 371.106L62.7059 371.504C62.9679 371.724 63.0018 372.114 62.7821 372.376L58.8854 377.017L58.6329 377.321C58.4144 377.584 58.0241 377.62 57.7611 377.402L57.7515 377.394L55.2888 375.26C55.0304 375.036 55.0024 374.645 55.2263 374.387L55.2341 374.378L55.6495 373.917C55.8746 373.667 56.2583 373.642 56.5134 373.862L58.0206 375.159L61.3594 371.182C61.5793 370.921 61.9697 370.887 62.2317 371.106Z" fill="white"/>
<path d="M90.448 366.784C90.5973 367.211 90.7413 367.648 90.88 368.096H97.104V369.504H82.88V368.096H89.232C89.0933 367.744 88.9333 367.403 88.752 367.072L90.448 366.784ZM93.184 381.6L92.832 380.24L94.064 380.304C94.6613 380.304 94.96 380.091 94.96 379.664V375.616H85.04V381.648H83.6V374.304H96.4V379.984C96.4 381.061 95.7707 381.6 94.512 381.6H93.184ZM85.392 370.256H94.624V373.584H85.392V370.256ZM93.168 372.432V371.408H86.848V372.432H93.168ZM86.752 376.384H93.264V379.744H86.752V376.384ZM91.92 378.624V377.504H88.112V378.624H91.92ZM100.352 367.008C101.291 367.68 102.101 368.373 102.784 369.088L101.712 370.16C101.136 369.499 100.32 368.795 99.264 368.048L100.352 367.008ZM99.84 370.832C100.896 371.611 101.776 372.395 102.48 373.184L101.408 374.272C100.757 373.525 99.8773 372.731 98.768 371.888L99.84 370.832ZM102.48 375.872C101.893 377.76 101.2 379.616 100.4 381.44L98.992 380.816C99.7813 379.131 100.496 377.312 101.136 375.36L102.48 375.872ZM107.28 366.88H108.768V367.792H112.88V369.04H108.768V369.808H112.272V371.024H108.768V371.824H113.328V373.072H102.768V371.824H107.28V371.024H103.936V369.808H107.28V369.04H103.28V367.792H107.28V366.88ZM105.568 377.12V377.984H110.512V377.12H105.568ZM110.512 375.968V375.056H105.568V375.968H110.512ZM105.568 379.12V381.648H104.16V373.824H111.968V380.08C111.968 381.061 111.483 381.552 110.512 381.552H109.024L108.672 380.208L110.08 380.288C110.368 380.288 110.512 380.117 110.512 379.776V379.12H105.568ZM116.048 367.6H127.696V369.088H122.064V370.048C122.032 370.933 121.968 371.776 121.872 372.576H128.96V374.048H124.128V379.184C124.128 379.707 124.373 379.968 124.864 379.968H126.672C126.992 379.968 127.232 379.856 127.392 379.632C127.573 379.397 127.696 378.672 127.76 377.456L129.184 377.92C129.056 379.595 128.811 380.597 128.448 380.928C128.117 381.237 127.621 381.392 126.96 381.392H124.4C123.216 381.392 122.624 380.763 122.624 379.504V374.048H121.632C121.344 375.435 120.939 376.624 120.416 377.616C119.424 379.355 117.824 380.699 115.616 381.648L114.768 380.288C116.965 379.285 118.459 378.011 119.248 376.464C119.6 375.696 119.867 374.891 120.048 374.048H115.008V372.576H120.32C120.416 371.776 120.48 370.933 120.512 370.048V369.088H116.048V367.6ZM131.072 370.816H136.336V372.016C135.568 375.568 133.957 378.256 131.504 380.08L130.544 378.832C132.613 377.307 134.043 375.125 134.832 372.288H131.072V370.816ZM144.56 370.224C143.376 371.685 142.107 372.955 140.752 374.032C141.989 375.984 143.573 377.6 145.504 378.88L144.544 380.272C141.952 378.171 140.069 375.856 138.896 373.328V379.888C138.896 381.019 138.373 381.584 137.328 381.584H135.216L134.88 380.096C135.552 380.16 136.192 380.192 136.8 380.192C137.173 380.192 137.36 379.963 137.36 379.504V366.848H138.896V370.16C139.195 371.056 139.584 371.957 140.064 372.864C141.269 371.808 142.357 370.624 143.328 369.312L144.56 370.224ZM149.168 373.968V378.224C150.683 377.893 152.064 377.547 153.312 377.184L153.712 378.576C151.824 379.099 149.813 379.568 147.68 379.984L147.072 378.72C147.456 378.507 147.648 378.197 147.648 377.792V368.096C149.685 367.776 151.509 367.355 153.12 366.832L154.064 368.048C152.677 368.496 151.045 368.901 149.168 369.264V372.512H153.584V373.968H149.168ZM157.584 379.504L157.168 378.032L158.592 378.064C159.008 378.064 159.216 377.835 159.216 377.376V369.088H156.064V381.664H154.528V367.648H160.752V377.696C160.752 378.901 160.197 379.504 159.088 379.504H157.584ZM165.488 371.376H166.912V373.584H168.256V374.944H166.912V376.72C167.477 376.592 167.931 376.48 168.272 376.384V377.808L166.912 378.176V381.648H165.488V378.496C164.411 378.699 163.525 378.848 162.832 378.944L162.64 377.456C163.643 377.328 164.592 377.184 165.488 377.024V374.944H163.152L162.832 373.664C163.237 372.768 163.6 371.691 163.92 370.432H162.768V368.992H164.256C164.427 368.181 164.565 367.467 164.672 366.848L166.048 367.168L165.68 368.992H168.336V370.432H165.328C165.008 371.616 164.672 372.667 164.32 373.584H165.488V371.376ZM170.352 370.832C169.829 371.312 169.269 371.781 168.672 372.24L167.84 370.976C169.44 369.835 170.885 368.475 172.176 366.896H173.296C174.672 368.581 176.075 369.915 177.504 370.896L176.704 372.096C176.181 371.712 175.616 371.253 175.008 370.72V371.648H170.352V370.832ZM174.672 370.4C173.989 369.728 173.344 369.019 172.736 368.272C172.096 369.04 171.451 369.749 170.8 370.4H174.672ZM170.784 381.536L170.448 380.304L171.072 380.352C171.381 380.352 171.536 380.181 171.536 379.84V378.688H170.096V381.648H168.784V372.672H172.832V380.112C172.832 381.061 172.384 381.536 171.488 381.536H170.784ZM170.096 377.536H171.536V376.304H170.096V377.536ZM170.096 375.152H171.536V373.888H170.096V375.152ZM173.504 373.152H174.656V378.96H173.504V373.152ZM174.032 381.568L173.712 380.24C174.149 380.304 174.555 380.336 174.928 380.336C175.227 380.336 175.376 380.128 175.376 379.712V372.512H176.704V380.032C176.704 381.056 176.272 381.568 175.408 381.568H174.032ZM190.128 372.32V368.08H191.664V373.792H186.784V379.312H190.928V375.072H192.448V381.536H190.928V380.768H181.072V381.536H179.552V375.072H181.072V379.312H185.216V373.792H180.336V368.08H181.872V372.32H185.216V366.864H186.784V372.32H190.128ZM201.632 369.2C201.557 369.413 201.451 369.653 201.312 369.92H205.424V370.944C205.029 371.712 204.411 372.405 203.568 373.024C204.517 373.451 205.643 373.813 206.944 374.112L206.16 375.248C204.667 374.843 203.381 374.357 202.304 373.792C201.109 374.389 199.621 374.891 197.84 375.296L197.184 374.08C198.784 373.813 200.085 373.467 201.088 373.04C200.576 372.688 200.128 372.32 199.744 371.936C199.328 372.309 198.837 372.677 198.272 373.04L197.44 371.936C198.837 371.147 199.787 370.176 200.288 369.024L201.632 369.2ZM202.336 372.416C202.997 371.989 203.52 371.525 203.904 371.024H200.592C200.549 371.067 200.528 371.093 200.528 371.104C201.061 371.605 201.664 372.043 202.336 372.416ZM199.232 376.72C201.387 377.115 203.413 377.653 205.312 378.336L204.816 379.552C202.853 378.837 200.8 378.272 198.656 377.856L199.232 376.72ZM200.864 374.56C202.197 374.955 203.371 375.408 204.384 375.92L203.68 377.008C202.56 376.4 201.392 375.915 200.176 375.552L200.864 374.56ZM208.688 367.472V381.648H207.2V381.088H196.8V381.648H195.312V367.472H208.688ZM196.8 379.744H207.2V368.816H196.8V379.744ZM214.416 376.016C214.064 378.352 213.307 380.139 212.144 381.376L211.008 380.384C212.395 378.859 213.093 376.427 213.104 373.088V367.072H214.64V370.672H219.312V366.88H220.784V370.672H225.072V372.144H214.64V373.088C214.64 373.429 214.619 373.92 214.576 374.56H221.872V381.68H220.352V376.016H214.416Z" fill="white"/>
</g>
<defs>
<linearGradient id="paint0_linear_409_3759" x1="438.876" y1="-246.584" x2="162.531" y2="441.121" gradientUnits="userSpaceOnUse">
<stop stop-color="white"/>
<stop offset="1" stop-color="white" stop-opacity="0"/>
</linearGradient>
<linearGradient id="paint1_linear_409_3759" x1="763.027" y1="-108.327" x2="114.089" y2="339.053" gradientUnits="userSpaceOnUse">
<stop stop-color="white"/>
<stop offset="1" stop-color="white" stop-opacity="0"/>
</linearGradient>
</defs>
</svg>
