<svg width="40" height="40" viewBox="0 0 40 40" fill="none" xmlns="http://www.w3.org/2000/svg">
<g id="Wechat">
<g id="Union">
<path fill-rule="evenodd" clip-rule="evenodd" d="M7.8125 23.7852C5.32779 21.9931 3.75 19.3514 3.75 16.4414C3.75 11.0371 8.99407 6.67578 15.4688 6.67578C21.3063 6.67578 26.1492 10.2344 27.0312 14.8789C26.9777 14.8785 26.9241 14.8778 26.8706 14.877C26.7135 14.8749 26.5574 14.8727 26.4062 14.8789C20.4952 14.8706 15.7128 18.8482 15.7031 23.7852C15.7128 24.5813 15.8519 25.3815 16.0938 26.1289C15.8931 26.1511 15.6789 26.1567 15.4688 26.1289C14.1264 26.1567 12.8359 25.9657 11.6406 25.6602C11.5033 25.627 11.2969 25.5886 11.1732 25.5886C11.0496 25.5886 10.8664 25.6395 10.7031 25.7383L8.125 27.2227C8.03787 27.2691 7.96849 27.3008 7.89062 27.3008C7.66787 27.3008 7.49346 27.1265 7.5 26.9102C7.49579 26.8488 7.51574 26.7909 7.53927 26.7228C7.55229 26.685 7.56641 26.6441 7.57812 26.5977C7.59021 26.5497 7.62871 26.3879 7.68289 26.1601C7.77604 25.7685 7.91555 25.182 8.04688 24.6445C8.07775 24.5182 8.09345 24.4221 8.09338 24.3326C8.09345 24.074 7.99552 23.9199 7.8125 23.7852ZM9.92188 13.3164C9.92188 14.1795 10.6213 14.8789 11.4844 14.8789C12.3474 14.8789 13.0469 14.1795 13.0469 13.3164C13.0469 12.4536 12.3474 11.7539 11.4844 11.7539C10.6213 11.7539 9.92188 12.4536 9.92188 13.3164ZM17.7344 13.3164C17.7344 14.1795 18.4337 14.8789 19.2969 14.8789C20.1597 14.8789 20.8594 14.1795 20.8594 13.3164C20.8594 12.4536 20.1597 11.7539 19.2969 11.7539C18.4337 11.7539 17.7344 12.4536 17.7344 13.3164Z" fill="white"/>
<path fill-rule="evenodd" clip-rule="evenodd" d="M7.8125 23.7852C5.32779 21.9931 3.75 19.3514 3.75 16.4414C3.75 11.0371 8.99407 6.67578 15.4688 6.67578C21.3063 6.67578 26.1492 10.2344 27.0312 14.8789C26.9777 14.8785 26.9241 14.8778 26.8706 14.877C26.7135 14.8749 26.5574 14.8727 26.4062 14.8789C20.4952 14.8706 15.7128 18.8482 15.7031 23.7852C15.7128 24.5813 15.8519 25.3815 16.0938 26.1289C15.8931 26.1511 15.6789 26.1567 15.4688 26.1289C14.1264 26.1567 12.8359 25.9657 11.6406 25.6602C11.5033 25.627 11.2969 25.5886 11.1732 25.5886C11.0496 25.5886 10.8664 25.6395 10.7031 25.7383L8.125 27.2227C8.03787 27.2691 7.96849 27.3008 7.89062 27.3008C7.66787 27.3008 7.49346 27.1265 7.5 26.9102C7.49579 26.8488 7.51574 26.7909 7.53927 26.7228C7.55229 26.685 7.56641 26.6441 7.57812 26.5977C7.59021 26.5497 7.62871 26.3879 7.68289 26.1601C7.77604 25.7685 7.91555 25.182 8.04688 24.6445C8.07775 24.5182 8.09345 24.4221 8.09338 24.3326C8.09345 24.074 7.99552 23.9199 7.8125 23.7852ZM9.92188 13.3164C9.92188 14.1795 10.6213 14.8789 11.4844 14.8789C12.3474 14.8789 13.0469 14.1795 13.0469 13.3164C13.0469 12.4536 12.3474 11.7539 11.4844 11.7539C10.6213 11.7539 9.92188 12.4536 9.92188 13.3164ZM17.7344 13.3164C17.7344 14.1795 18.4337 14.8789 19.2969 14.8789C20.1597 14.8789 20.8594 14.1795 20.8594 13.3164C20.8594 12.4536 20.1597 11.7539 19.2969 11.7539C18.4337 11.7539 17.7344 12.4536 17.7344 13.3164Z" fill="url(#paint0_linear_186_14895)"/>
<path fill-rule="evenodd" clip-rule="evenodd" d="M26.4062 15.6602C31.7993 15.6602 36.1719 19.2941 36.1719 23.7852C36.1719 26.2226 34.8561 28.4243 32.8125 29.8789C32.632 30.0303 32.5484 30.2035 32.5484 30.3647C32.5484 30.526 32.5589 30.575 32.5781 30.6602C32.7136 31.2617 32.9754 32.2147 32.9983 32.2921C33.0021 32.305 33.0061 32.3178 33.0101 32.3306C33.0301 32.3945 33.05 32.4582 33.0469 32.5352C33.0507 32.7022 32.9054 32.8477 32.7344 32.8477C32.6545 32.8477 32.5971 32.8215 32.5 32.7695L30.3906 31.5195C30.3847 31.5164 30.3787 31.5132 30.3726 31.51C30.2285 31.4339 30.0634 31.3467 29.8748 31.3837C29.6881 31.4203 29.6843 31.4213 29.6201 31.4385L29.6094 31.4414C28.5964 31.7352 27.5204 31.894 26.4062 31.9102C21.0129 31.894 16.6406 28.26 16.6406 23.7852C16.6406 19.2941 21.0129 15.6602 26.4062 15.6602ZM21.875 21.091C21.875 21.8194 22.4348 22.3789 23.0871 22.3789C23.8157 22.3789 24.375 21.8194 24.375 21.091C24.375 20.4387 23.8157 19.8789 23.0871 19.8789C22.4348 19.8789 21.875 20.4387 21.875 21.091ZM28.3594 21.091C28.3594 21.8194 28.9192 22.3789 29.5715 22.3789C30.3001 22.3789 30.8594 21.8194 30.8594 21.091C30.8594 20.4387 30.3001 19.8789 29.5715 19.8789C28.9192 19.8789 28.3594 20.4387 28.3594 21.091Z" fill="white"/>
<path fill-rule="evenodd" clip-rule="evenodd" d="M26.4062 15.6602C31.7993 15.6602 36.1719 19.2941 36.1719 23.7852C36.1719 26.2226 34.8561 28.4243 32.8125 29.8789C32.632 30.0303 32.5484 30.2035 32.5484 30.3647C32.5484 30.526 32.5589 30.575 32.5781 30.6602C32.7136 31.2617 32.9754 32.2147 32.9983 32.2921C33.0021 32.305 33.0061 32.3178 33.0101 32.3306C33.0301 32.3945 33.05 32.4582 33.0469 32.5352C33.0507 32.7022 32.9054 32.8477 32.7344 32.8477C32.6545 32.8477 32.5971 32.8215 32.5 32.7695L30.3906 31.5195C30.3847 31.5164 30.3787 31.5132 30.3726 31.51C30.2285 31.4339 30.0634 31.3467 29.8748 31.3837C29.6881 31.4203 29.6843 31.4213 29.6201 31.4385L29.6094 31.4414C28.5964 31.7352 27.5204 31.894 26.4062 31.9102C21.0129 31.894 16.6406 28.26 16.6406 23.7852C16.6406 19.2941 21.0129 15.6602 26.4062 15.6602ZM21.875 21.091C21.875 21.8194 22.4348 22.3789 23.0871 22.3789C23.8157 22.3789 24.375 21.8194 24.375 21.091C24.375 20.4387 23.8157 19.8789 23.0871 19.8789C22.4348 19.8789 21.875 20.4387 21.875 21.091ZM28.3594 21.091C28.3594 21.8194 28.9192 22.3789 29.5715 22.3789C30.3001 22.3789 30.8594 21.8194 30.8594 21.091C30.8594 20.4387 30.3001 19.8789 29.5715 19.8789C28.9192 19.8789 28.3594 20.4387 28.3594 21.091Z" fill="url(#paint1_linear_186_14895)"/>
</g>
</g>
<defs>
<linearGradient id="paint0_linear_186_14895" x1="3.75" y1="6.67578" x2="3.75" y2="32.8477" gradientUnits="userSpaceOnUse">
<stop stop-color="#20D329"/>
<stop offset="1" stop-color="#1BB623"/>
</linearGradient>
<linearGradient id="paint1_linear_186_14895" x1="3.75" y1="6.67578" x2="3.75" y2="32.8477" gradientUnits="userSpaceOnUse">
<stop stop-color="#20D329"/>
<stop offset="1" stop-color="#1BB623"/>
</linearGradient>
</defs>
</svg>
